<svg width="43" height="43" viewBox="0 0 43 43" fill="none" xmlns="http://www.w3.org/2000/svg">
<path d="M21.5003 20.6041C22.3882 20.6041 23.2135 20.2485 24.8642 19.5372L26.0553 19.024C28.9909 17.759 30.4587 17.1266 30.4587 16.125C30.4587 15.1234 28.9909 14.4909 26.0553 13.226L24.8642 12.7127C23.2135 12.0015 22.3882 11.6458 21.5003 11.6458C20.6125 11.6458 19.7872 12.0015 18.1365 12.7127L16.9453 13.226C14.0098 14.4909 12.542 15.1234 12.542 16.125C12.542 17.1266 14.0098 17.759 16.9453 19.024L18.1365 19.5372C19.7872 20.2485 20.6125 20.6041 21.5003 20.6041ZM21.5003 20.6041V31.3541" stroke="#1F2022" stroke-width="2" stroke-linejoin="round"/>
<path d="M30.4587 16.125V26.875C30.4587 27.8766 28.9909 28.509 26.0553 29.774L24.8642 30.2872C23.2135 30.9985 22.3882 31.3542 21.5003 31.3542C20.6125 31.3542 19.7872 30.9985 18.1365 30.2872L16.9453 29.774C14.0098 28.509 12.542 27.8766 12.542 26.875V16.125" stroke="#1F2022" stroke-width="2" stroke-linejoin="round"/>
<path d="M16.3838 4.47919C11.6233 4.58803 8.84272 5.04277 6.9429 6.94259C5.04308 8.84242 4.58834 11.623 4.47949 16.3835M26.6169 4.47919C31.3774 4.58803 34.1579 5.04277 36.0578 6.94259C37.9576 8.84242 38.4123 11.623 38.5212 16.3835M26.6169 38.5209C31.3774 38.412 34.1579 37.9573 36.0578 36.0574C37.9576 34.1576 38.4123 31.377 38.5212 26.6165M16.3838 38.5209C11.6233 38.412 8.84272 37.9573 6.9429 36.0574C5.04308 34.1576 4.58834 31.3771 4.47949 26.6165" stroke="#1F2022" stroke-width="2" stroke-linecap="round" stroke-linejoin="round"/>
</svg>
