<svg width="1236" height="152" viewBox="0 0 1236 152" fill="none" xmlns="http://www.w3.org/2000/svg">
<path d="M1235.89 11.7615H1234.15V7.18672H1230.43L1230.06 7.04425C1229.06 6.90178 1228.29 6.52978 1227.76 5.92825C1227.23 5.32144 1226.96 4.56689 1226.96 3.66459C1226.96 2.6251 1227.34 1.79404 1228.09 1.1714C1228.85 0.548761 1229.93 0.237442 1231.32 0.237442H1235.89V11.7615ZM1234.15 5.82535V1.5988H1231.36C1230.35 1.5988 1229.66 1.78876 1229.27 2.16868C1228.89 2.54859 1228.7 3.04987 1228.7 3.6725C1228.7 4.29514 1228.89 4.80961 1229.27 5.21591C1229.66 5.62221 1230.35 5.82535 1231.36 5.82535H1234.15ZM1228.24 11.7615H1226.37L1229.7 6.44272H1231.47L1228.24 11.7615Z" fill="#1F2022"/>
<path d="M1172 11.7615H1170.27V3.39548C1170.27 3.23719 1170.28 3.05778 1170.28 2.85727C1170.29 2.65676 1170.3 2.47736 1170.31 2.31906H1170.24C1170.17 2.4668 1170.09 2.61455 1170 2.76229C1169.91 2.91004 1169.81 3.07097 1169.68 3.2451L1163.52 11.7615H1161.66V0.237442H1163.39V8.60348C1163.39 8.76178 1163.38 8.94118 1163.37 9.14169C1163.37 9.33693 1163.36 9.51633 1163.36 9.67991H1163.44C1163.49 9.54799 1163.57 9.40289 1163.67 9.24459C1163.76 9.08101 1163.86 8.91744 1163.97 8.75386L1170.15 0.237442H1172V11.7615Z" fill="#1F2022"/>
<path d="M1098.17 11.7615V0.237442H1102.7C1104.15 0.237442 1105.27 0.546123 1106.05 1.16348C1106.84 1.78085 1107.23 2.66204 1107.23 3.80706C1107.23 4.93625 1106.84 5.81744 1106.05 6.45063C1105.27 7.07855 1104.15 7.38986 1102.7 7.38459H1099.91V11.7615H1098.17ZM1099.91 6.01531H1102.66C1103.7 6.01531 1104.44 5.81744 1104.86 5.4217C1105.28 5.02067 1105.49 4.48246 1105.49 3.80706C1105.49 3.12638 1105.28 2.5908 1104.86 2.20033C1104.44 1.80987 1103.7 1.61463 1102.66 1.61463H1099.91V6.01531Z" fill="#1F2022"/>
<path d="M1035.14 11.7615V0.237442H1043.52V1.62255H1036.87V5.13676H1042.69V6.50604H1036.87V10.3764H1043.61V11.7615H1035.14Z" fill="#1F2022"/>
<path d="M970.004 6.23693V5.76204C970.004 3.85719 970.532 2.42196 971.587 1.45634C972.643 0.485447 973.98 0 975.6 0C977.115 0 978.318 0.335064 979.209 1.00519C980.101 1.67532 980.608 2.64094 980.729 3.90204L980.737 4.00493H978.988L978.98 3.90204C978.901 3.09472 978.568 2.48 977.983 2.05787C977.402 1.63574 976.605 1.42468 975.592 1.42468C974.463 1.42468 973.542 1.78349 972.83 2.50111C972.123 3.21872 971.769 4.28987 971.769 5.71455V6.28442C971.769 7.76187 972.123 8.84621 972.83 9.53744C973.542 10.2287 974.463 10.5743 975.592 10.5743C976.721 10.5743 977.55 10.3368 978.078 9.86195C978.605 9.38706 978.906 8.79872 978.98 8.09693L978.988 7.99404H980.737L980.729 8.09693C980.618 9.26306 980.135 10.2049 979.281 10.9225C978.426 11.6402 977.199 11.999 975.6 11.999C973.98 11.999 972.643 11.5267 971.587 10.5822C970.532 9.6377 970.004 8.18927 970.004 6.23693Z" fill="#1F2022"/>
<path d="M858.413 11.7615H856.671V7.18672H852.951L852.579 7.04425C851.582 6.90178 850.817 6.52978 850.284 5.92825C849.751 5.32144 849.485 4.56689 849.485 3.66459C849.485 2.6251 849.862 1.79404 850.617 1.1714C851.376 0.548761 852.453 0.237442 853.846 0.237442H858.413V11.7615ZM856.671 5.82535V1.5988H853.885C852.878 1.5988 852.181 1.78876 851.796 2.16868C851.416 2.54859 851.226 3.04987 851.226 3.6725C851.226 4.29514 851.416 4.80961 851.796 5.21591C852.181 5.62221 852.878 5.82535 853.885 5.82535H856.671ZM850.759 11.7615H848.891L852.223 6.44272H853.988L850.759 11.7615Z" fill="#1F2022"/>
<path d="M784.234 11.7615L789.189 0.166199H790.946L795.901 11.7615H794.033L790.527 3.21343C790.426 2.97071 790.337 2.74118 790.258 2.52484C790.184 2.3085 790.115 2.09479 790.052 1.88373H789.965C789.901 2.09479 789.83 2.3085 789.751 2.52484C789.677 2.74118 789.59 2.97071 789.49 3.21343L785.96 11.7615H784.234ZM786.356 8.84883L786.91 7.47164H793.162L793.716 8.84883H786.356Z" fill="#1F2022"/>
<path d="M719.997 11.7615V0.237442H721.738V5.12884H728.497V0.237442H730.238V11.7615H728.497V6.50604H721.738V11.7615H719.997Z" fill="#1F2022"/>
<path d="M654.382 11.7615V0.237442H656.124V5.12884H662.883V0.237442H664.624V11.7615H662.883V6.50604H656.124V11.7615H654.382Z" fill="#1F2022"/>
<path d="M588.721 11.7615L593.675 0.166199H595.433L600.387 11.7615H598.519L595.013 3.21343C594.913 2.97071 594.823 2.74118 594.744 2.52484C594.67 2.3085 594.601 2.09479 594.538 1.88373H594.451C594.388 2.09479 594.317 2.3085 594.237 2.52484C594.164 2.74118 594.076 2.97071 593.976 3.21343L590.446 11.7615H588.721ZM590.842 8.84883L591.396 7.47164H597.649L598.203 8.84883H590.842Z" fill="#1F2022"/>
<path d="M526.146 11.7615V0.237442H530.633C531.968 0.237442 533.016 0.469612 533.775 0.933952C534.541 1.39829 534.923 2.18187 534.923 3.28467C534.923 3.91787 534.746 4.43497 534.393 4.83599C534.045 5.23174 533.609 5.51404 533.087 5.68289V5.71455C533.731 5.8834 534.256 6.19472 534.662 6.6485C535.074 7.09701 535.279 7.69591 535.279 8.44518C535.279 9.54799 534.878 10.3764 534.076 10.9305C533.274 11.4845 532.216 11.7615 530.902 11.7615H526.146ZM527.855 10.4081H530.879C531.797 10.4081 532.472 10.2419 532.905 9.90944C533.338 9.57701 533.554 9.07574 533.554 8.40561C533.554 7.78825 533.338 7.30544 532.905 6.95718C532.472 6.60365 531.797 6.42689 530.879 6.42689H527.855V10.4081ZM527.855 5.1051H530.61C531.528 5.1051 532.19 4.94944 532.596 4.63812C533.002 4.3268 533.206 3.88884 533.206 3.32425C533.206 2.72272 533.002 2.28476 532.596 2.01038C532.19 1.73072 531.528 1.59089 530.61 1.59089H527.855V5.1051Z" fill="#1F2022"/>
<path d="M459.89 6.22902V5.76204C459.89 3.86247 460.418 2.42723 461.473 1.45634C462.534 0.485447 463.895 0 465.557 0C467.214 0 468.575 0.485447 469.641 1.45634C470.707 2.42723 471.24 3.86247 471.24 5.76204V6.22902C471.24 8.13387 470.707 9.57174 469.641 10.5426C468.575 11.5135 467.214 11.999 465.557 11.999C463.9 11.999 462.542 11.5135 461.481 10.5426C460.42 9.57174 459.89 8.13387 459.89 6.22902ZM461.655 6.27651C461.655 7.70647 462.011 8.78025 462.724 9.49787C463.441 10.2155 464.386 10.5743 465.557 10.5743C466.734 10.5743 467.678 10.2155 468.391 9.49787C469.108 8.78025 469.467 7.70647 469.467 6.27651V5.72247C469.467 4.28723 469.108 3.21345 468.391 2.50111C467.678 1.78349 466.734 1.42468 465.557 1.42468C464.386 1.42468 463.441 1.78349 462.724 2.50111C462.011 3.21345 461.655 4.28723 461.655 5.72247V6.27651Z" fill="#1F2022"/>
<path d="M396.864 11.7615V0.237442H401.391C402.847 0.237442 403.966 0.546123 404.747 1.16348C405.528 1.78085 405.918 2.66204 405.918 3.80706C405.918 4.93625 405.528 5.81744 404.747 6.45063C403.966 7.07855 402.847 7.38986 401.391 7.38459H398.605V11.7615H396.864ZM398.605 6.01531H401.352C402.396 6.01531 403.13 5.81744 403.552 5.4217C403.974 5.02067 404.185 4.48246 404.185 3.80706C404.185 3.12638 403.974 2.5908 403.552 2.20033C403.13 1.80987 402.396 1.61463 401.352 1.61463H398.605V6.01531Z" fill="#1F2022"/>
<path d="M341.491 11.7615H339.766V3.39548C339.766 3.23719 339.768 3.05778 339.774 2.85727C339.779 2.65676 339.789 2.47736 339.805 2.31906H339.734C339.66 2.4668 339.578 2.61455 339.489 2.76229C339.404 2.91004 339.299 3.07097 339.172 3.2451L333.006 11.7615H331.154V0.237442H332.88V8.60348C332.88 8.76178 332.874 8.94118 332.864 9.14169C332.859 9.33693 332.853 9.51633 332.848 9.67991H332.927C332.985 9.54799 333.062 9.40289 333.157 9.24459C333.252 9.08101 333.355 8.91744 333.465 8.75386L339.639 0.237442H341.491V11.7615Z" fill="#1F2022"/>
<path d="M266.664 1.62255V0.237442H276.929V1.62255H272.671V11.7615H270.938V1.62255H266.664Z" fill="#1F2022"/>
<path d="M212.447 11.7615H210.721V3.39548C210.721 3.23719 210.724 3.05778 210.729 2.85727C210.734 2.65676 210.745 2.47736 210.761 2.31906H210.69C210.616 2.4668 210.534 2.61455 210.444 2.76229C210.36 2.91004 210.254 3.07097 210.128 3.2451L203.962 11.7615H202.11V0.237442H203.835V8.60348C203.835 8.76178 203.83 8.94118 203.819 9.14169C203.814 9.33693 203.809 9.51633 203.804 9.67991H203.883C203.941 9.54799 204.017 9.40289 204.112 9.24459C204.207 9.08101 204.31 8.91744 204.421 8.75386L210.595 0.237442H212.447V11.7615Z" fill="#1F2022"/>
<path d="M133.488 11.7615V0.237442H135.664L139.661 8.95965C139.735 9.12323 139.809 9.2868 139.883 9.45037C139.962 9.60867 140.025 9.74323 140.073 9.85403H140.128C140.176 9.74323 140.231 9.60867 140.295 9.45037C140.363 9.2868 140.434 9.12323 140.508 8.95965L144.545 0.237442H146.745V11.7615H145.044V3.37174C145.044 3.21344 145.049 3.03667 145.059 2.84144C145.07 2.64621 145.083 2.46944 145.099 2.31114H145.036C144.999 2.46944 144.946 2.64621 144.877 2.84144C144.814 3.03667 144.748 3.21344 144.679 3.37174L140.825 11.7615H139.266L135.427 3.37174C135.348 3.21344 135.274 3.03931 135.205 2.84936C135.142 2.65412 135.092 2.47472 135.055 2.31114H134.992C135.007 2.47472 135.021 2.65412 135.031 2.84936C135.047 3.03931 135.055 3.21608 135.055 3.37965V11.7615H133.488Z" fill="#1F2022"/>
<path d="M78.1154 11.7615H76.39V3.39548C76.39 3.23719 76.3926 3.05778 76.3979 2.85727C76.4032 2.65676 76.4137 2.47736 76.4295 2.31906H76.3583C76.2844 2.4668 76.2026 2.61455 76.1129 2.76229C76.0285 2.91004 75.923 3.07097 75.7963 3.2451L69.6306 11.7615H67.7786V0.237442H69.504V8.60348C69.504 8.76178 69.4987 8.94118 69.4882 9.14169C69.4829 9.33693 69.4776 9.51633 69.4724 9.67991H69.5515C69.6095 9.54799 69.6861 9.40289 69.781 9.24459C69.876 9.08101 69.9789 8.91744 70.0897 8.75386L76.2633 0.237442H78.1154V11.7615Z" fill="#1F2022"/>
<path d="M3.47782 0.237442H12.3821V11.7615H10.6408V1.62255H5.00539L4.68088 7.44791C4.60173 8.97284 4.36429 10.1126 3.96854 10.8671C3.57807 11.6164 2.8499 11.9911 1.78403 11.9911C1.64684 11.9911 1.50173 11.9805 1.34871 11.9594C1.19569 11.9436 1.04267 11.9093 0.889648 11.8565V10.3922C1.01629 10.4345 1.13237 10.4635 1.2379 10.4793C1.34344 10.4899 1.45424 10.4951 1.57033 10.4951C2.10327 10.4951 2.47263 10.2471 2.67841 9.75114C2.88948 9.24986 3.02931 8.39505 3.0979 7.18672L3.47782 0.237442Z" fill="#1F2022"/>
<path d="M1123.1 149V42.3594H1151.37V82.0566H1207.25V42.3594H1235.45V149H1207.25V105.714H1151.37V149H1123.1Z" fill="#1F2022"/>
<path d="M1096.8 149H1068.53V83.0088C1068.53 81.4951 1068.55 80.3965 1068.6 79.7129C1068.65 78.9805 1068.68 78.248 1068.68 77.5156H1068.38C1068.09 78.1504 1067.65 78.8828 1067.07 79.7129C1066.53 80.4941 1065.65 81.4951 1064.43 82.7158L1015.58 149H982.91V42.3594H1011.18V106.812C1011.18 108.033 1011.18 109.01 1011.18 109.742C1011.18 110.426 1011.18 111.354 1011.18 112.525H1011.47C1011.82 111.598 1012.23 110.914 1012.72 110.475C1013.26 110.035 1014.11 109.156 1015.28 107.838L1064.14 42.3594H1096.8V149Z" fill="#1F2022"/>
<path d="M937.793 149L884.766 98.4629L906.738 82.7891L975.22 149H937.793ZM865.942 82.8623H891.797L935.522 42.3594H971.484L900.146 105.714H865.942V82.8623ZM851.807 149V42.3594H880.078V149H851.807Z" fill="#1F2022"/>
<path d="M699.609 96.3389V94.874C699.609 76.7588 706.104 63.1113 719.092 53.9316C732.129 44.752 749.121 40.1621 770.068 40.1621C790.771 40.1621 806.396 43.6045 816.943 50.4893C827.49 57.3252 833.813 67.6279 835.913 81.3975L836.279 84.3271H808.081L807.715 82.0566C806.25 74.9766 802.71 69.459 797.095 65.5039C791.479 61.5488 782.739 59.5713 770.874 59.5713C757.886 59.5713 747.803 62.5742 740.625 68.5801C733.447 74.5859 729.858 83.3018 729.858 94.7275V96.2656C729.858 107.887 733.521 116.773 740.845 122.926C748.218 129.078 758.228 132.154 770.874 132.154C782.739 132.154 791.528 130.323 797.241 126.661C802.954 122.999 806.494 117.457 807.861 110.035L808.228 107.472H836.279L835.986 110.475C834.326 124.049 828.32 134.229 817.969 141.017C807.666 147.804 791.772 151.197 770.288 151.197C748.657 151.197 731.47 146.51 718.726 137.135C705.981 127.711 699.609 114.112 699.609 96.3389Z" fill="#1F2022"/>
<path d="M549.756 95.3867V94.5078C549.756 76.7344 556.592 63.2334 570.264 54.0049C583.936 44.7764 600.781 40.1621 620.801 40.1621C640.869 40.1621 657.764 44.7764 671.484 54.0049C685.205 63.2334 692.065 76.7344 692.065 94.5078V95.3867C692.065 113.893 685.205 127.833 671.484 137.208C657.764 146.534 640.869 151.197 620.801 151.197C600.781 151.197 583.936 146.534 570.264 137.208C556.592 127.833 549.756 113.893 549.756 95.3867ZM579.272 95.7529C579.272 107.667 583.13 116.676 590.845 122.779C598.56 128.883 608.594 132.008 620.947 132.154C633.252 132.252 643.262 129.2 650.977 122.999C658.691 116.749 662.549 107.74 662.549 95.9727V94.5811C662.549 83.3018 658.691 74.7568 650.977 68.9463C643.311 63.0869 633.301 60.084 620.947 59.9375C608.496 59.791 598.438 62.7207 590.771 68.7266C583.105 74.6836 579.272 83.2773 579.272 94.5078V95.7529Z" fill="#1F2022"/>
<path d="M432.568 149V42.3594H503.174C516.699 42.3594 526.733 45.7773 533.276 52.6133C539.819 59.4004 543.091 68.9951 543.091 81.3975C543.091 93.0186 539.868 102.394 533.423 109.522C527.026 116.651 516.772 120.216 502.661 120.216H460.84V149H432.568ZM460.84 101.393H495.264C502.49 101.393 507.568 99.6592 510.498 96.1924C513.477 92.7256 514.966 87.9893 514.966 81.9834C514.966 75.7822 513.477 71.0459 510.498 67.7744C507.568 64.4541 502.49 62.7939 495.264 62.7939H460.84V101.393Z" fill="#1F2022"/>
<path d="M302.124 64.625V42.3594H417.993V64.625H374.341V149H345.703V64.625H302.124Z" fill="#1F2022"/>
<path d="M166.333 149L220.605 41.9932H249.243L303.296 149H271.216L237.158 76.0508C236.426 74.5859 235.864 73.4873 235.474 72.7549C235.083 72.0225 234.668 71.2168 234.229 70.3379H234.082C233.643 71.2656 233.228 72.0957 232.837 72.8281C232.495 73.5117 231.958 74.6104 231.226 76.124L197.241 149H166.333ZM192.847 126.148L201.27 107.618H268.213L276.343 126.148H192.847Z" fill="#1F2022"/>
<path d="M0 149V42.3594H32.5195L75.7324 111.72C76.416 112.843 76.8555 113.6 77.0508 113.99C77.2949 114.332 77.5146 114.723 77.71 115.162H77.8564C78.1006 114.723 78.3203 114.332 78.5156 113.99C78.7598 113.6 79.2236 112.843 79.9072 111.72L122.827 42.3594H155.859V149H128.247L128.394 84.6934C128.394 83.8145 128.394 83.1553 128.394 82.7158C128.394 82.2764 128.394 81.6172 128.394 80.7383H128.174C127.686 81.6172 127.295 82.2764 127.002 82.7158C126.758 83.1064 126.392 83.7168 125.903 84.5469L86.0596 149H69.3604L29.4434 84.9131C28.8086 83.9365 28.3936 83.3018 28.1982 83.0088C28.0518 82.7158 27.71 82.0322 27.1729 80.958H26.8799C26.8799 82.1299 26.8799 82.8867 26.8799 83.2285C26.8799 83.5703 26.8799 84.1807 26.8799 85.0596L27.0264 149H0Z" fill="#1F2022"/>
</svg>
