<svg width="357" height="50" viewBox="0 0 357 50" fill="none" xmlns="http://www.w3.org/2000/svg">
<path d="M324.534 48.4502V17.6349H332.703V29.106H348.852V17.6349H357V48.4502H348.852V35.9421H332.703V48.4502H324.534Z" fill="#1F2022"/>
<path d="M316.936 48.4502H308.767V29.3811C308.767 28.9437 308.774 28.6263 308.788 28.4287C308.802 28.2171 308.809 28.0055 308.809 27.7938H308.724C308.64 27.9772 308.513 28.1889 308.343 28.4287C308.188 28.6545 307.934 28.9437 307.581 29.2965L293.465 48.4502H284.025V17.6349H292.195V36.2595C292.195 36.6123 292.195 36.8945 292.195 37.1061C292.195 37.3037 292.195 37.5717 292.195 37.9104H292.279C292.378 37.6423 292.498 37.4448 292.639 37.3178C292.794 37.1908 293.041 36.9368 293.38 36.5559L307.497 17.6349H316.936V48.4502Z" fill="#1F2022"/>
<path d="M270.988 48.4502L255.665 33.8468L262.014 29.3176L281.803 48.4502H270.988ZM250.226 29.3388H257.697L270.332 17.6349H280.724L260.11 35.9421H250.226V29.3388ZM246.141 48.4502V17.6349H254.311V48.4502H246.141Z" fill="#1F2022"/>
<path d="M202.162 33.2331V32.8098C202.162 27.5751 204.039 23.6315 207.792 20.9789C211.559 18.3263 216.469 17 222.522 17C228.505 17 233.02 17.9947 236.067 19.9842C239.115 21.9595 240.942 24.9366 241.549 28.9155L241.655 29.7621H233.506L233.401 29.106C232.977 27.0601 231.954 25.4657 230.332 24.3229C228.709 23.18 226.184 22.6086 222.755 22.6086C219.002 22.6086 216.088 23.4763 214.014 25.2118C211.94 26.9472 210.903 29.4658 210.903 32.7674V33.2119C210.903 36.57 211.961 39.1379 214.078 40.9157C216.208 42.6935 219.101 43.5824 222.755 43.5824C226.184 43.5824 228.723 43.0533 230.374 41.9951C232.025 40.9369 233.048 39.3354 233.443 37.1908L233.549 36.45H241.655L241.57 37.3178C241.09 41.2402 239.355 44.1821 236.364 46.1433C233.387 48.1045 228.794 49.0851 222.586 49.0851C216.335 49.0851 211.369 47.7306 207.686 45.0216C204.003 42.2984 202.162 38.3689 202.162 33.2331Z" fill="#1F2022"/>
<path d="M158.86 32.9579V32.7039C158.86 27.5681 160.835 23.6668 164.786 21.0001C168.736 18.3334 173.604 17 179.389 17C185.188 17 190.07 18.3334 194.035 21.0001C198 23.6668 199.982 27.5681 199.982 32.7039V32.9579C199.982 38.3054 198 42.3337 194.035 45.0428C190.07 47.7377 185.188 49.0851 179.389 49.0851C173.604 49.0851 168.736 47.7377 164.786 45.0428C160.835 42.3337 158.86 38.3054 158.86 32.9579ZM167.389 33.0637C167.389 36.5065 168.504 39.1097 170.733 40.8734C172.962 42.6371 175.862 43.5401 179.432 43.5824C182.987 43.6106 185.88 42.7288 188.109 40.9369C190.338 39.1308 191.453 36.5276 191.453 33.1272V32.7251C191.453 29.4658 190.338 26.9966 188.109 25.3176C185.894 23.6244 183.001 22.7567 179.432 22.7144C175.834 22.672 172.927 23.5186 170.712 25.2541C168.497 26.9755 167.389 29.4587 167.389 32.7039V33.0637Z" fill="#1F2022"/>
<path d="M124.996 48.4502V17.6349H145.399C149.307 17.6349 152.206 18.6226 154.097 20.5979C155.988 22.5592 156.933 25.3317 156.933 28.9155C156.933 32.2736 156.002 34.9826 154.139 37.0426C152.291 39.1026 149.328 40.1326 145.25 40.1326H133.166V48.4502H124.996ZM133.166 34.6934H143.113C145.201 34.6934 146.668 34.1925 147.515 33.1907C148.376 32.1889 148.806 30.8203 148.806 29.0848C148.806 27.2929 148.376 25.9243 147.515 24.979C146.668 24.0195 145.201 23.5398 143.113 23.5398H133.166V34.6934Z" fill="#1F2022"/>
<path d="M87.303 24.0689V17.6349H120.785V24.0689H108.171V48.4502H99.8958V24.0689H87.303Z" fill="#1F2022"/>
<path d="M48.0643 48.4502L63.7471 17.5291H72.0223L87.6416 48.4502H78.3716L68.5302 27.3705C68.3186 26.9473 68.1563 26.6298 68.0434 26.4181C67.9306 26.2065 67.8106 25.9737 67.6836 25.7197H67.6413C67.5143 25.9878 67.3944 26.2277 67.2815 26.4393C67.1828 26.6368 67.0275 26.9543 66.8159 27.3917L56.9956 48.4502H48.0643ZM55.7258 41.847L58.1597 36.4924H77.5039L79.8531 41.847H55.7258Z" fill="#1F2022"/>
<path d="M0 48.4502V17.6349H9.39697L21.8839 37.6776C22.0815 38.0021 22.2085 38.2208 22.2649 38.3337C22.3354 38.4324 22.3989 38.5453 22.4554 38.6723H22.4977C22.5682 38.5453 22.6317 38.4324 22.6882 38.3337C22.7587 38.2208 22.8928 38.0021 23.0903 37.6776L35.4926 17.6349H45.0377V48.4502H37.0588L37.1011 29.8679C37.1011 29.6139 37.1011 29.4235 37.1011 29.2965C37.1011 29.1695 37.1011 28.979 37.1011 28.725H37.0376C36.8965 28.979 36.7836 29.1695 36.699 29.2965C36.6284 29.4094 36.5226 29.5857 36.3815 29.8256L24.8681 48.4502H20.0426L8.50807 29.9314C8.32464 29.6492 8.20471 29.4658 8.14827 29.3811C8.10594 29.2965 8.00718 29.0989 7.85197 28.7885H7.76731C7.76731 29.1272 7.76731 29.3459 7.76731 29.4446C7.76731 29.5434 7.76731 29.7198 7.76731 29.9737L7.80964 48.4502H0Z" fill="#1F2022"/>
<path d="M355.33 6.68106H354.283V4.13183H351.963L351.724 4.01493C351.191 3.91302 350.78 3.68972 350.493 3.34503C350.205 3.00034 350.061 2.5912 350.061 2.11762C350.061 1.51516 350.29 1.03409 350.749 0.674407C351.21 0.314728 351.864 0.134888 352.709 0.134888H355.33V6.68106ZM354.283 3.30007V0.971143H352.723C352.114 0.971143 351.693 1.08055 351.459 1.29935C351.225 1.51516 351.108 1.78792 351.108 2.11762C351.108 2.45033 351.225 2.73058 351.459 2.95837C351.693 3.18617 352.113 3.30007 352.718 3.30007H354.283ZM350.834 6.68106H349.71L351.612 3.65975H352.705L350.834 6.68106Z" fill="#1F2022"/>
<path d="M337.31 6.68106H336.262V1.98724C336.262 1.89432 336.265 1.8014 336.271 1.70849C336.277 1.61557 336.283 1.52265 336.289 1.42973H336.244C336.203 1.51066 336.158 1.58859 336.11 1.66353C336.062 1.73546 335.996 1.82688 335.912 1.93778L332.306 6.68106H331.236V0.134888H332.284V4.82871C332.284 4.92163 332.281 5.01454 332.275 5.10746C332.269 5.20038 332.263 5.29329 332.257 5.38621H332.302C332.343 5.30828 332.388 5.23185 332.436 5.15692C332.487 5.07899 332.553 4.98607 332.634 4.87816L336.24 0.134888H337.31V6.68106Z" fill="#1F2022"/>
<path d="M313.408 6.68106V0.134888H316.061C316.927 0.134888 317.593 0.317725 318.057 0.683399C318.525 1.04608 318.759 1.54363 318.759 2.17607C318.759 2.80551 318.525 3.30457 318.057 3.67324C317.593 4.04191 316.927 4.22624 316.061 4.22624H314.456V6.68106H313.408ZM314.456 3.39449H316.039C316.656 3.39449 317.089 3.27909 317.338 3.04829C317.59 2.8145 317.716 2.52376 317.716 2.17607C317.716 1.82538 317.59 1.53764 317.338 1.31284C317.089 1.08504 316.656 0.971143 316.039 0.971143H314.456V3.39449Z" fill="#1F2022"/>
<path d="M295.868 6.68106V0.134888H300.814V0.975639H296.916V2.88644H300.338V3.72269H296.916V5.84031H300.868V6.68106H295.868Z" fill="#1F2022"/>
<path d="M277.107 3.52936V3.28657C277.107 2.2435 277.414 1.43572 278.028 0.863231C278.646 0.287744 279.429 0 280.38 0C281.306 0 282.022 0.206816 282.529 0.620448C283.035 1.03408 283.32 1.5736 283.383 2.23901L283.387 2.29296H282.335L282.331 2.23451C282.295 1.85085 282.117 1.52714 281.796 1.26338C281.478 0.99961 281.005 0.867727 280.375 0.867727C279.728 0.867727 279.199 1.07754 278.788 1.49717C278.377 1.91679 278.172 2.50427 278.172 3.2596V3.55633C278.172 4.31766 278.377 4.90663 278.788 5.32326C279.199 5.73989 279.729 5.9482 280.38 5.9482C281.024 5.9482 281.502 5.81482 281.814 5.54806C282.126 5.2783 282.298 4.95609 282.331 4.58142L282.335 4.52297H283.387L283.383 4.58142C283.326 5.23484 283.046 5.77136 282.542 6.19099C282.039 6.60762 281.318 6.81593 280.38 6.81593C279.429 6.81593 278.646 6.53118 278.028 5.96169C277.414 5.3892 277.107 4.57842 277.107 3.52936Z" fill="#1F2022"/>
<path d="M250.841 6.68106H249.793V4.13183H247.473L247.235 4.01493C246.702 3.91302 246.291 3.68972 246.003 3.34503C245.715 3.00034 245.572 2.5912 245.572 2.11762C245.572 1.51516 245.801 1.03409 246.259 0.674407C246.721 0.314728 247.374 0.134888 248.22 0.134888H250.841V6.68106ZM249.793 3.30007V0.971143H248.233C247.625 0.971143 247.204 1.08055 246.97 1.29935C246.736 1.51516 246.619 1.78792 246.619 2.11762C246.619 2.45033 246.736 2.73058 246.97 2.95837C247.204 3.18617 247.623 3.30007 248.229 3.30007H249.793ZM246.345 6.68106H245.221L247.123 3.65975H248.215L246.345 6.68106Z" fill="#1F2022"/>
<path d="M226.903 6.68098L229.78 0.0943451H230.868L233.741 6.68098H232.622L230.621 1.97817C230.555 1.8283 230.497 1.68743 230.446 1.55554C230.398 1.42366 230.354 1.29178 230.315 1.1599H230.261C230.223 1.29178 230.179 1.42516 230.131 1.56004C230.083 1.69192 230.028 1.8313 229.965 1.97817L227.942 6.68098H226.903ZM228.144 5.07591L228.472 4.23965H232.127L232.465 5.07591H228.144Z" fill="#1F2022"/>
<path d="M208.712 6.68106V0.134888H209.759V2.88644H213.716V0.134888H214.759V6.68106H213.716V3.72269H209.759V6.68106H208.712Z" fill="#1F2022"/>
<path d="M189.599 6.68106V0.134888H190.646V2.88644H194.603V0.134888H195.646V6.68106H194.603V3.72269H190.646V6.68106H189.599Z" fill="#1F2022"/>
<path d="M170.616 6.68098L173.493 0.0943451H174.581L177.454 6.68098H176.334L174.334 1.97817C174.268 1.8283 174.209 1.68743 174.158 1.55554C174.11 1.42366 174.067 1.29178 174.028 1.1599H173.974C173.935 1.29178 173.892 1.42516 173.844 1.56004C173.796 1.69192 173.74 1.8313 173.677 1.97817L171.654 6.68098H170.616ZM171.856 5.07591L172.185 4.23965H175.84L176.177 5.07591H171.856Z" fill="#1F2022"/>
<path d="M153.458 6.68106V0.134888H156.089C156.889 0.134888 157.517 0.272765 157.972 0.548519C158.431 0.824274 158.66 1.26488 158.66 1.87034C158.66 2.23002 158.555 2.52226 158.346 2.74706C158.136 2.97186 157.875 3.13072 157.563 3.22364V3.24162C157.947 3.33754 158.259 3.51588 158.498 3.77665C158.741 4.03442 158.863 4.37311 158.863 4.79274C158.863 5.3982 158.623 5.86429 158.143 6.191C157.667 6.5177 157.034 6.68106 156.246 6.68106H153.458ZM154.488 5.86728H156.237C156.785 5.86728 157.187 5.76987 157.442 5.57504C157.7 5.38022 157.829 5.11046 157.829 4.76576C157.829 4.42407 157.7 4.15731 157.442 3.96548C157.187 3.77065 156.785 3.67324 156.237 3.67324H154.488V5.86728ZM154.488 2.87745H156.08C156.628 2.87745 157.022 2.79352 157.262 2.62567C157.502 2.45482 157.622 2.21354 157.622 1.90181C157.622 1.59009 157.502 1.3533 157.262 1.19145C157.022 1.02959 156.628 0.948663 156.08 0.948663H154.488V2.87745Z" fill="#1F2022"/>
<path d="M133.869 3.52936V3.28657C133.869 2.23751 134.187 1.42823 134.822 0.858735C135.461 0.286245 136.282 0 137.286 0C138.281 0 139.098 0.286245 139.736 0.858735C140.378 1.42823 140.699 2.23751 140.699 3.28657V3.52936C140.699 4.57842 140.378 5.3892 139.736 5.96169C139.098 6.53118 138.281 6.81593 137.286 6.81593C136.285 6.81593 135.465 6.53118 134.827 5.96169C134.188 5.3892 133.869 4.57842 133.869 3.52936ZM134.93 3.53835C134.93 4.31166 135.145 4.90663 135.573 5.32326C136.005 5.73989 136.576 5.9482 137.286 5.9482C137.993 5.9482 138.561 5.73989 138.99 5.32326C139.422 4.90663 139.638 4.31166 139.638 3.53835V3.27309C139.638 2.50277 139.422 1.9093 138.99 1.49267C138.561 1.07604 137.993 0.867727 137.286 0.867727C136.576 0.867727 136.005 1.07604 135.573 1.49267C135.145 1.9093 134.93 2.50277 134.93 3.27309V3.53835Z" fill="#1F2022"/>
<path d="M116.348 6.68106V0.134888H119C119.867 0.134888 120.532 0.317725 120.997 0.683399C121.464 1.04608 121.698 1.54363 121.698 2.17607C121.698 2.80551 121.464 3.30457 120.997 3.67324C120.532 4.04191 119.867 4.22624 119 4.22624H117.395V6.68106H116.348ZM117.395 3.39449H118.978C119.595 3.39449 120.029 3.27909 120.277 3.04829C120.529 2.8145 120.655 2.52376 120.655 2.17607C120.655 1.82538 120.529 1.53764 120.277 1.31284C120.029 1.08504 119.595 0.971143 118.978 0.971143H117.395V3.39449Z" fill="#1F2022"/>
<path d="M103.282 6.68106H102.234V1.98724C102.234 1.89432 102.237 1.8014 102.243 1.70849C102.249 1.61557 102.255 1.52265 102.261 1.42973H102.216C102.174 1.51066 102.129 1.58859 102.081 1.66353C102.033 1.73546 101.967 1.82688 101.883 1.93778L98.2775 6.68106H97.2075V0.134888H98.255V4.82871C98.255 4.92163 98.2521 5.01454 98.2461 5.10746C98.2401 5.20038 98.2341 5.29329 98.2281 5.38621H98.273C98.315 5.30828 98.36 5.23185 98.4079 5.15692C98.4589 5.07899 98.5248 4.98607 98.6057 4.87816L102.212 0.134888H103.282V6.68106Z" fill="#1F2022"/>
<path d="M78.89 0.975639V0.134888H84.9371V0.975639H82.4374V6.68106H81.3988V0.975639H78.89Z" fill="#1F2022"/>
<path d="M66.6199 6.68106H65.5723V1.98724C65.5723 1.89432 65.5753 1.8014 65.5813 1.70849C65.5873 1.61557 65.5933 1.52265 65.5993 1.42973H65.5544C65.5124 1.51066 65.4674 1.58859 65.4195 1.66353C65.3715 1.73546 65.3056 1.82688 65.2216 1.93778L61.6159 6.68106H60.5458V0.134888H61.5934V4.82871C61.5934 4.92163 61.5904 5.01454 61.5844 5.10746C61.5784 5.20038 61.5724 5.29329 61.5664 5.38621H61.6114C61.6533 5.30828 61.6983 5.23185 61.7462 5.15692C61.7972 5.07899 61.8631 4.98607 61.9441 4.87816L65.5499 0.134888H66.6199V6.68106Z" fill="#1F2022"/>
<path d="M39.7257 6.68106V0.134888H41.0475L43.309 4.91863C43.3509 5.00855 43.3974 5.11645 43.4484 5.24234C43.5023 5.36523 43.5413 5.46864 43.5652 5.55256H43.6057C43.6327 5.46564 43.6672 5.36073 43.7091 5.23784C43.7541 5.11495 43.796 5.00855 43.835 4.91863L46.074 0.134888H47.4813V6.68106H46.4652V1.90181C46.4652 1.8089 46.4667 1.70549 46.4697 1.59159C46.4757 1.47769 46.4846 1.37578 46.4966 1.28586H46.4562C46.4262 1.37578 46.3887 1.47769 46.3438 1.59159C46.3018 1.70549 46.2598 1.8089 46.2179 1.90181L44.0328 6.68106H43.0842L40.8721 1.90181C40.8302 1.8089 40.7882 1.70549 40.7463 1.59159C40.7073 1.47769 40.6773 1.37578 40.6563 1.28586H40.6114C40.6234 1.37578 40.6339 1.47769 40.6429 1.59159C40.6518 1.70549 40.6563 1.8089 40.6563 1.90181V6.68106H39.7257Z" fill="#1F2022"/>
<path d="M26.6585 6.68106H25.6109V1.98724C25.6109 1.89432 25.6139 1.8014 25.6199 1.70849C25.6259 1.61557 25.6319 1.52265 25.6379 1.42973H25.5929C25.551 1.51066 25.506 1.58859 25.458 1.66353C25.4101 1.73546 25.3441 1.82688 25.2602 1.93778L21.6544 6.68106H20.5844V0.134888H21.6319V4.82871C21.6319 4.92163 21.6289 5.01454 21.623 5.10746C21.617 5.20038 21.611 5.29329 21.605 5.38621H21.6499C21.6919 5.30828 21.7369 5.23185 21.7848 5.15692C21.8358 5.07899 21.9017 4.98607 21.9826 4.87816L25.5884 0.134888H26.6585V6.68106Z" fill="#1F2022"/>
<path d="M2.37577 0.134888H7.51469V6.68106H6.47162V0.975639H3.29745L3.10412 4.2757C3.05916 5.07898 2.92279 5.70243 2.69499 6.14603C2.47019 6.58964 2.06855 6.81144 1.49006 6.81144C1.40314 6.81144 1.31922 6.80395 1.23829 6.78896C1.15736 6.77697 1.07793 6.75899 1 6.73501V5.79085C1.06894 5.81783 1.13038 5.83581 1.18434 5.8448C1.24128 5.85379 1.30423 5.85829 1.37317 5.85829C1.64592 5.85529 1.83476 5.71292 1.93966 5.43117C2.04457 5.14942 2.11351 4.71331 2.14648 4.12284L2.37577 0.134888Z" fill="#1F2022"/>
</svg>
