<svg width="321" height="23" viewBox="0 0 321 23" fill="none" xmlns="http://www.w3.org/2000/svg">
<path d="M18.517 20.4082C17.7287 20.8705 16.533 21.1787 15.9385 21.3328C14.1482 21.7951 12.4181 21.7951 11.5564 21.7951C8.67064 21.7951 7.22108 21.2993 6.49964 21.0514C4.33532 20.3077 3.36672 19.4099 2.88576 18.961C1.44288 17.6076 0.96192 16.3681 0.72144 15.7517C-7.96318e-08 13.8891 0 12.3749 0 11.6178C0 9.112 0.49432 7.79881 0.74148 7.14221C1.47628 5.16571 2.39144 4.24111 2.839 3.78551C4.20172 2.39861 5.50432 1.90951 6.15896 1.66161C8.1162 0.917908 9.73276 0.917908 10.541 0.917908C13.006 0.917908 14.2818 1.17251 14.9231 1.29311C16.847 1.67501 17.9625 2.21771 18.517 2.49911V9.58101C17.2077 9.15221 15.9118 8.95791 15.2638 8.85741C13.3266 8.56261 11.9238 8.56261 11.2224 8.56261C8.92448 8.56261 8.06944 9.0316 7.64192 9.2728C6.35936 9.983 6.35936 10.9009 6.35936 11.3632C6.35936 12.7501 7.2812 13.2861 7.73544 13.5541C9.1182 14.3581 10.8884 14.3581 11.7768 14.3581C13.547 14.3581 14.7027 14.2241 15.2705 14.1638C16.9939 13.9695 18.0026 13.7216 18.5036 13.601V20.4149L18.517 20.4082Z" fill="#1F2022"/>
<path d="M31.2557 14.2174C32.2444 14.2174 32.8255 14.0968 33.1128 14.0365C33.9812 13.8556 34.422 13.601 34.6358 13.4737C35.2904 13.0985 35.5576 12.7367 35.6846 12.5491C36.0787 12.0064 36.0787 11.524 36.0787 11.2828C36.0787 10.5592 35.8182 10.1974 35.6846 10.0165C35.2904 9.47379 34.8562 9.23929 34.6358 9.12539C33.9812 8.78369 33.3866 8.66309 33.0927 8.59609C32.2043 8.41519 31.5697 8.41519 31.2557 8.41519C30.3072 8.41519 29.7126 8.53579 29.4187 8.59609C28.5303 8.77699 28.0827 9.01819 27.8623 9.13879C27.1876 9.50059 26.9271 9.84899 26.7935 10.0299C26.3994 10.5592 26.3994 11.0416 26.3994 11.2761C26.3994 11.9997 26.6599 12.3615 26.7935 12.5424C27.1876 13.0851 27.6352 13.3263 27.8623 13.4469C28.537 13.8087 29.1181 13.9427 29.4054 14.0097C30.2738 14.204 30.9351 14.204 31.2624 14.204M42.3846 11.7183C42.3846 14.1906 41.8502 15.4368 41.583 16.0666C40.7814 17.9426 39.8061 18.8002 39.3185 19.229C37.8556 20.5154 36.4862 20.9442 35.8048 21.1519C33.754 21.7951 32.0907 21.7951 31.2557 21.7951C28.7574 21.7951 27.3947 21.3328 26.7066 21.105C24.6559 20.4149 23.694 19.5372 23.213 19.095C21.7701 17.7818 21.2357 16.5289 20.9618 15.8991C20.1602 14.0231 20.1602 12.4419 20.1602 11.6513C20.1602 9.14549 20.688 7.81889 20.9485 7.15559C21.7367 5.16569 22.712 4.24109 23.1996 3.77879C24.6626 2.39189 26.0253 1.90279 26.7133 1.65489C28.7641 0.911194 30.4274 0.911194 31.2624 0.911194C33.7941 0.911194 35.1568 1.40699 35.8449 1.65489C37.8956 2.39859 38.8576 3.3299 39.3385 3.7922C40.7814 5.1925 41.3225 6.51909 41.5897 7.18239C42.3913 9.17229 42.3913 10.8674 42.3913 11.7116" fill="#1F2022"/>
<path d="M61.8234 14.5457C63.794 14.5457 64.649 14.0298 65.0766 13.7752C66.3591 12.998 66.3591 11.9461 66.3591 11.4168C66.3591 9.93611 65.5308 9.4269 65.11 9.179C63.8608 8.4219 62.5048 8.42191 61.8301 8.42191C59.8261 8.42191 58.9844 8.8909 58.5636 9.1321C57.301 9.8423 57.301 10.8942 57.301 11.4235C57.301 12.9377 58.1695 13.4737 58.597 13.7484C59.8929 14.5524 61.1888 14.5524 61.8301 14.5524M72.1975 11.256C72.1975 13.7618 71.7298 15.075 71.4894 15.7316C70.7813 17.7081 69.8929 18.626 69.452 19.0883C68.1227 20.4752 66.8401 20.9643 66.1988 21.2122C64.2816 21.9559 62.6384 21.9559 61.8167 21.9559C57.9423 21.9559 56.3124 20.77 55.4975 20.1804C53.0526 18.4049 52.458 16.2073 52.1641 15.1085H50.9818V21.6276H44.0212V1.24621H50.9818V7.47051H52.2309C52.6918 6.02331 53.2396 5.2059 53.5135 4.8039C54.3351 3.5845 55.1367 3.01501 55.5308 2.72691C56.7266 1.86931 57.7687 1.55441 58.2897 1.39361C59.8528 0.917907 61.1621 0.917908 61.8234 0.917908C66.7132 0.917908 68.5435 2.72021 69.4586 3.61801C72.1974 6.31811 72.1975 9.61451 72.1975 11.256Z" fill="#1F2022"/>
<path d="M73.48 15.6311C75.484 16.0934 76.8067 16.1939 77.468 16.2408C79.4519 16.3882 80.7679 16.3882 81.4225 16.3882C82.7652 16.3882 83.3263 16.3212 83.6069 16.2877C84.4486 16.1872 84.7625 16.0532 84.9229 15.9929C85.3971 15.7986 85.5174 15.6177 85.5775 15.5306C85.7578 15.2693 85.7579 15.0482 85.7579 14.941C85.7579 14.7467 85.6844 14.5926 85.6443 14.5122C85.5307 14.2777 85.2969 14.1504 85.1834 14.0834C84.8427 13.8891 84.4219 13.7953 84.2148 13.7551C83.5935 13.6278 82.9322 13.6278 82.6049 13.6278H76.7599V9.6748H82.6717C83.1994 9.6748 83.5134 9.6413 83.6737 9.6279C84.148 9.581 84.3885 9.5006 84.5087 9.4604C84.8694 9.3465 85.0164 9.17899 85.0832 9.09859C85.2969 8.85069 85.2969 8.5894 85.2969 8.4554C85.2969 8.0266 85.1567 7.85239 85.0832 7.76529C84.8694 7.50399 84.5287 7.39009 84.3617 7.33649C83.8541 7.17569 83.2729 7.12879 82.979 7.10869C82.1106 7.04169 81.2355 7.0417 80.7946 7.0417C80.0732 7.0417 79.4386 7.08859 79.1179 7.10869C78.1627 7.17569 77.4947 7.26279 77.1607 7.30299C76.1587 7.43699 75.5107 7.5576 75.1901 7.6179C74.2215 7.7988 73.7205 7.9529 73.4667 8.0266V2.43209C75.0431 1.86929 76.3457 1.55439 76.9937 1.39359C78.9509 0.911195 80.7412 0.911194 81.643 0.911194C83.647 0.911194 84.8293 1.08539 85.4172 1.17249C87.1874 1.43379 88.0892 1.88269 88.5367 2.11049C89.8794 2.78719 90.4071 3.53089 90.6677 3.90609C91.4559 5.02499 91.4559 6.19079 91.4559 6.77369C91.4559 8.54919 90.9282 9.26609 90.6677 9.62119C89.8794 10.6932 89.0444 11.1756 88.6303 11.4168C89.2582 11.6513 89.679 11.8791 89.8928 11.993C90.5341 12.3414 90.848 12.7434 91.0083 12.9511C91.4826 13.5608 91.6363 14.1705 91.7164 14.4854C91.9435 15.41 91.8166 16.3078 91.7498 16.7567C91.3891 19.3898 89.6723 20.2474 88.8106 20.6762C86.2321 21.9626 83.3397 21.9626 81.8968 21.9626C79.2382 21.9626 77.802 21.7147 77.0872 21.5874C74.9363 21.2055 73.9543 20.8102 73.46 20.6159V15.6445L73.48 15.6311Z" fill="#1F2022"/>
<path d="M107.595 10.0701L109.859 1.24622H119.345L121.416 21.6276H114.455L113.667 12.8037H112.845L111.108 21.6276H103.259L101.523 12.8037H100.701L99.9128 21.6276H92.9522L95.0163 1.24622H104.509L106.773 10.0701H107.595Z" fill="#1F2022"/>
<path d="M124.041 14.6127C124.602 14.874 125.083 14.9544 125.323 14.9946C126.045 15.1085 126.399 15.1085 126.573 15.1085C127.327 15.1085 127.588 15.0415 127.722 15.008L121.088 1.2395H128.643L131.696 9.4068H132.518L135.444 1.2395H142.992L135.571 17.6076C134.555 19.8119 133.426 20.636 132.859 21.0514C131.168 22.2842 129.265 22.2842 128.309 22.2842C127.882 22.2842 127.501 22.2641 127.307 22.2507C126.733 22.2172 126.325 22.1636 126.125 22.1368C125.517 22.0564 125.143 21.976 124.963 21.9425C124.402 21.8286 124.161 21.7147 124.041 21.6611V14.6127Z" fill="#1F2022"/>
<path d="M150.768 11.055H149.913L146.927 21.6276H139.706L145.056 1.2395H155.631L160.981 21.6276H153.76L150.768 11.055Z" fill="#1F2022"/>
<path d="M170.801 15.7316C172.865 15.7316 173.473 15.4167 173.774 15.2559C174.675 14.7802 174.675 14.1437 174.675 13.8221C174.675 12.8707 174.021 12.596 173.687 12.4553C172.698 12.0466 171.496 12.0466 170.894 12.0466C170.367 12.0466 170.12 12.0533 169.993 12.06C169.612 12.0801 169.331 12.1002 169.191 12.1069V15.5976C169.719 15.6646 169.966 15.6847 170.093 15.6981C170.474 15.7316 170.694 15.7316 170.801 15.7316ZM162.291 1.2395H169.184V6.18411C169.712 6.11711 170.006 6.1171 170.153 6.1171H171.021C173.059 6.1171 174.228 6.3717 174.816 6.499C176.572 6.8809 177.448 7.4705 177.888 7.7653C179.204 8.6497 179.705 9.6413 179.953 10.1371C180.707 11.6178 180.707 13.0851 180.707 13.8221C180.707 17.5406 179.091 18.961 178.276 19.6712C175.844 21.7951 172.718 21.7951 171.148 21.7951C166.519 21.7951 163.693 21.3998 162.284 21.2055V1.2462L162.291 1.2395Z" fill="#1F2022"/>
<path d="M199.886 8.48891H193.78V21.6276H186.853V8.48891H181.041V1.24622H199.886V8.48891Z" fill="#1F2022"/>
<path d="M207.013 11.3498C207.013 11.9126 207.12 12.2476 207.18 12.4218C207.341 12.931 207.608 13.199 207.735 13.3263C208.129 13.7216 208.556 13.8757 208.77 13.9494C209.411 14.1839 210.046 14.1839 210.36 14.1839V8.5224C209.411 8.5224 208.977 8.6765 208.77 8.7502C208.129 8.978 207.868 9.246 207.735 9.38C207.341 9.7753 207.234 10.117 207.18 10.2845C207.013 10.7937 207.013 11.1689 207.013 11.3565M220.64 11.1555C220.64 10.6597 220.534 10.3448 220.473 10.184C220.306 9.7083 220.059 9.4537 219.932 9.3264C219.558 8.9445 219.131 8.8038 218.917 8.7368C218.276 8.5224 217.621 8.5224 217.294 8.5224V14.2174C218.937 14.2174 219.505 13.6546 219.792 13.3799C220.647 12.5424 220.647 11.6178 220.647 11.1555M217.26 1.5745C219.131 1.7688 220.266 2.2311 220.841 2.4656C222.551 3.1557 223.433 3.9597 223.88 4.3617C225.21 5.561 225.737 6.7201 225.998 7.2896C226.786 9.0182 226.786 10.5592 226.786 11.323C226.786 13.6278 226.265 14.7601 225.998 15.3229C225.21 17.018 224.321 17.7885 223.88 18.1704C222.551 19.3228 221.409 19.7516 220.841 19.966C219.131 20.6092 217.888 20.7432 217.26 20.8102V22.3579H210.367V20.8102C208.396 20.6092 207.247 20.1737 206.673 19.9526C204.949 19.296 204.094 18.5255 203.667 18.1436C202.384 16.9912 201.883 15.8589 201.629 15.2961C200.874 13.601 200.874 12.06 200.874 11.2962C200.874 8.9914 201.382 7.839 201.629 7.2628C202.384 5.5342 203.252 4.7436 203.68 4.3483C204.976 3.1624 206.125 2.7001 206.699 2.4723C208.423 1.7822 209.712 1.6482 210.36 1.5812V0H217.254V1.5812L217.26 1.5745Z" fill="#1F2022"/>
<path d="M235.71 1.2395V9.38H236.432L241.128 1.2395H248.676V21.6276H241.749V13.4603H240.994L236.298 21.6276H228.75V1.2395H235.71Z" fill="#1F2022"/>
<path d="M261.382 11.055H260.527L257.541 21.6276H250.32L255.67 1.2395H266.245L271.595 21.6276H264.374L261.382 11.055Z" fill="#1F2022"/>
<path d="M281.415 15.7316C283.479 15.7316 284.087 15.4167 284.388 15.2559C285.289 14.7802 285.289 14.1437 285.289 13.8221C285.289 12.8707 284.635 12.596 284.301 12.4553C283.312 12.0466 282.11 12.0466 281.509 12.0466C280.981 12.0466 280.734 12.0533 280.607 12.06C280.226 12.0801 279.945 12.1002 279.805 12.1069V15.5976C280.333 15.6646 280.58 15.6847 280.707 15.6981C281.088 15.7316 281.308 15.7316 281.415 15.7316ZM272.911 1.2395H279.805V6.18411C280.333 6.11711 280.627 6.1171 280.774 6.1171H281.642C283.68 6.1171 284.849 6.3717 285.436 6.499C287.193 6.8809 288.068 7.4705 288.509 7.7653C289.825 8.6497 290.326 9.6413 290.573 10.1371C291.328 11.6178 291.328 13.0851 291.328 13.8221C291.328 17.5406 289.705 18.961 288.897 19.6712C286.465 21.7951 283.339 21.7951 281.769 21.7951C277.14 21.7951 274.314 21.3998 272.905 21.2055V1.2462L272.911 1.2395Z" fill="#1F2022"/>
<path d="M306.959 10.0701L309.224 1.24622H318.709L320.78 21.6276H313.82L313.031 12.8037H312.21L310.473 21.6276H302.624L300.887 12.8037H300.059L299.277 21.6276H292.317L294.381 1.24622H303.873L306.138 10.0701H306.959Z" fill="#1F2022"/>
</svg>
