<svg width="43" height="43" fill="none" xmlns="http://www.w3.org/2000/svg"><path d="M21.5 20.604c.888 0 1.713-.355 3.364-1.067l1.191-.513c2.936-1.265 4.404-1.897 4.404-2.899s-1.468-1.634-4.404-2.899l-1.19-.513c-1.651-.711-2.477-1.067-3.365-1.067-.887 0-1.713.355-3.363 1.067l-1.192.513c-2.935 1.265-4.403 1.897-4.403 2.899s1.468 1.634 4.403 2.899l1.192.513c1.65.712 2.476 1.067 3.363 1.067zm0 0v10.75" stroke="#1F2022" stroke-width="2" stroke-linejoin="round"/><path d="M30.459 16.125v10.75c0 1.002-1.468 1.634-4.404 2.899l-1.19.513c-1.651.712-2.477 1.067-3.365 1.067-.887 0-1.713-.355-3.363-1.067l-1.192-.513c-2.935-1.265-4.403-1.897-4.403-2.899v-10.75" stroke="#1F2022" stroke-width="2" stroke-linejoin="round"/><path d="M16.384 4.48c-4.76.108-7.541.563-9.441 2.463-1.9 1.9-2.355 4.68-2.464 9.44M26.617 4.48c4.76.109 7.54.564 9.44 2.464 1.9 1.9 2.355 4.68 2.464 9.44M26.617 38.522c4.76-.109 7.54-.564 9.44-2.464 1.9-1.9 2.355-4.68 2.464-9.44M16.384 38.52c-4.76-.109-7.541-.564-9.441-2.464-1.9-1.9-2.355-4.68-2.464-9.44" stroke="#1F2022" stroke-width="2" stroke-linecap="round" stroke-linejoin="round"/></svg>