<svg width="1236" height="152" fill="none" xmlns="http://www.w3.org/2000/svg"><path d="M1235.89 11.761h-1.74V7.188h-3.72l-.37-.143c-1-.142-1.77-.514-2.3-1.116-.53-.607-.8-1.361-.8-2.263 0-1.04.38-1.871 1.13-2.494.76-.622 1.84-.934 3.23-.934h4.57v11.524zm-1.74-5.936V1.6h-2.79c-1.01 0-1.7.19-2.09.57-.38.38-.57.88-.57 1.503 0 .623.19 1.138.57 1.544.39.406 1.08.61 2.09.61h2.79zm-5.91 5.936h-1.87l3.33-5.318h1.77l-3.23 5.319zm-56.24 0h-1.73V3.396c0-.158.01-.337.01-.538.01-.2.02-.38.03-.538h-.07a5.943 5.943 0 01-.56.926l-6.16 8.517h-1.86V.237h1.73v8.366c0 .159-.01.338-.02.539 0 .195-.01.374-.01.538h.08c.05-.132.13-.277.23-.435.09-.164.19-.328.3-.491l6.18-8.517h1.85v11.524zm-73.83 0V.238h4.53c1.45 0 2.57.31 3.35.926.79.618 1.18 1.499 1.18 2.644 0 1.13-.39 2.01-1.18 2.644-.78.628-1.9.939-3.35.934h-2.79v4.377h-1.74zm1.74-5.746h2.75c1.04 0 1.78-.198 2.2-.593.42-.401.63-.94.63-1.615 0-.68-.21-1.216-.63-1.607-.42-.39-1.16-.585-2.2-.585h-2.75v4.4zm-64.77 5.746V.238h8.38v1.386h-6.65v3.514h5.82v1.369h-5.82v3.87h6.74v1.386h-8.47zm-65.136-5.524v-.475c0-1.905.528-3.34 1.583-4.306C972.643.486 973.98 0 975.6 0c1.515 0 2.718.335 3.609 1.005.892.67 1.399 1.636 1.52 2.897l.008.103h-1.749l-.008-.103c-.079-.807-.412-1.422-.997-1.844-.581-.422-1.378-.633-2.391-.633-1.129 0-2.05.358-2.762 1.076-.707.718-1.061 1.789-1.061 3.214v.57c0 1.477.354 2.561 1.061 3.252.712.692 1.633 1.037 2.762 1.037s1.958-.237 2.486-.712a2.68 2.68 0 00.902-1.765l.008-.103h1.749l-.008.103c-.111 1.166-.594 2.108-1.448 2.825-.855.718-2.082 1.077-3.681 1.077-1.62 0-2.957-.472-4.013-1.417-1.055-.944-1.583-2.393-1.583-4.345zm-111.591 5.524h-1.742V7.188h-3.72l-.372-.143c-.997-.142-1.762-.514-2.295-1.116-.533-.607-.799-1.361-.799-2.263 0-1.04.377-1.871 1.132-2.494.759-.622 1.836-.934 3.229-.934h4.567v11.524zm-1.742-5.936V1.6h-2.786c-1.007 0-1.704.19-2.089.57-.38.38-.57.88-.57 1.503 0 .623.19 1.138.57 1.544.385.406 1.082.61 2.089.61h2.786zm-5.912 5.936h-1.868l3.332-5.318h1.765l-3.229 5.319zm-66.525 0L789.189.166h1.757l4.955 11.595h-1.868l-3.506-8.548c-.101-.242-.19-.472-.269-.688-.074-.216-.143-.43-.206-.641h-.087c-.064.21-.135.425-.214.64a12.07 12.07 0 01-.261.69l-3.53 8.547h-1.726zm2.122-2.912l.554-1.377h6.252l.554 1.377h-7.36zm-66.359 2.912V.238h1.741V5.13h6.759V.237h1.741v11.524h-1.741V6.506h-6.759v5.255h-1.741zm-65.615 0V.238h1.742V5.13h6.759V.237h1.741v11.524h-1.741V6.506h-6.759v5.255h-1.742zm-65.661 0L593.675.166h1.758l4.954 11.595h-1.868l-3.506-8.548c-.1-.242-.19-.472-.269-.688-.074-.216-.143-.43-.206-.641h-.087c-.063.21-.134.425-.214.64a11.36 11.36 0 01-.261.69l-3.53 8.547h-1.725zm2.121-2.912l.554-1.377h6.253l.554 1.377h-7.361zm-64.696 2.912V.238h4.487c1.335 0 2.383.233 3.142.697.766.464 1.148 1.248 1.148 2.35 0 .634-.177 1.151-.53 1.552a2.886 2.886 0 01-1.306.847v.032c.644.168 1.169.48 1.575.934.412.448.617 1.047.617 1.796 0 1.103-.401 1.931-1.203 2.486-.802.554-1.86.83-3.174.83h-4.756zm1.709-1.353h3.024c.918 0 1.593-.166 2.026-.499.433-.332.649-.833.649-1.503 0-.618-.216-1.1-.649-1.449-.433-.353-1.108-.53-2.026-.53h-3.024v3.981zm0-5.303h2.755c.918 0 1.58-.156 1.986-.467.406-.311.61-.75.61-1.314 0-.601-.204-1.04-.61-1.314-.406-.28-1.068-.42-1.986-.42h-2.755v3.515zM459.89 6.229v-.467c0-1.9.528-3.335 1.583-4.306C462.534.486 463.895 0 465.557 0c1.657 0 3.018.485 4.084 1.456 1.066.971 1.599 2.406 1.599 4.306v.467c0 1.905-.533 3.343-1.599 4.314-1.066.97-2.427 1.456-4.084 1.456-1.657 0-3.015-.486-4.076-1.456-1.061-.971-1.591-2.41-1.591-4.314zm1.765.048c0 1.43.356 2.503 1.069 3.22.717.719 1.662 1.077 2.833 1.077 1.177 0 2.121-.358 2.834-1.076.717-.718 1.076-1.792 1.076-3.221v-.555c0-1.435-.359-2.509-1.076-3.22-.713-.719-1.657-1.077-2.834-1.077-1.171 0-2.116.358-2.833 1.076-.713.712-1.069 1.786-1.069 3.221v.555zm-64.791 5.484V.238h4.527c1.456 0 2.575.31 3.356.926.781.618 1.171 1.499 1.171 2.644 0 1.13-.39 2.01-1.171 2.644-.781.628-1.9.939-3.356.934h-2.786v4.377h-1.741zm1.741-5.746h2.747c1.044 0 1.778-.198 2.2-.593.422-.401.633-.94.633-1.615 0-.68-.211-1.216-.633-1.607-.422-.39-1.156-.585-2.2-.585h-2.747v4.4zm-57.114 5.746h-1.725V3.396c0-.158.002-.337.008-.538.005-.2.015-.38.031-.538h-.071a6.514 6.514 0 01-.245.443c-.085.148-.19.309-.317.483l-6.166 8.517h-1.852V.237h1.726v8.366c0 .159-.006.338-.016.539l-.016.538h.079c.058-.132.135-.277.23-.435a8.46 8.46 0 01.308-.491l6.174-8.517h1.852v11.524zM266.664 1.623V.237h10.265v1.386h-4.258V11.76h-1.733V1.623h-4.274zm-54.217 10.138h-1.726V3.396c0-.158.003-.337.008-.538.005-.2.016-.38.032-.538h-.071a6.125 6.125 0 01-.246.443c-.084.148-.19.309-.316.483l-6.166 8.517h-1.852V.237h1.725v8.366c0 .159-.005.338-.016.539l-.015.538h.079a3.93 3.93 0 01.229-.435c.095-.164.198-.328.309-.491l6.174-8.517h1.852v11.524zm-78.959 0V.238h2.176l3.997 8.723.222.49c.079.159.142.293.19.404h.055c.048-.11.103-.245.167-.404.068-.163.139-.327.213-.49l4.037-8.723h2.2v11.524h-1.701v-8.39a10.453 10.453 0 01.055-1.06h-.063c-.037.158-.09.335-.159.53a5.754 5.754 0 01-.198.53l-3.854 8.39h-1.559l-3.839-8.39a4.974 4.974 0 01-.222-.522 6.276 6.276 0 01-.15-.538h-.063c.015.164.029.343.039.538.016.19.024.367.024.53v8.383h-1.567zm-55.373 0H76.39V3.396c0-.158.003-.337.008-.538.005-.2.016-.38.032-.538h-.072a6.191 6.191 0 01-.245.443 5.3 5.3 0 01-.317.483l-6.165 8.517h-1.852V.237h1.725v8.366c0 .159-.005.338-.016.539-.005.195-.01.374-.016.538h.08c.057-.132.134-.277.229-.435.095-.164.198-.328.309-.491L76.263.237h1.852v11.524zM3.478.237h8.904v11.524h-1.741V1.623H5.005l-.324 5.825c-.08 1.525-.317 2.665-.712 3.42-.39.748-1.12 1.123-2.185 1.123-.137 0-.282-.01-.435-.032a2.05 2.05 0 01-.46-.102v-1.465c.127.043.243.072.349.087.105.01.216.016.332.016.533 0 .903-.248 1.108-.744.211-.501.351-1.356.42-2.564l.38-6.95zM1123.1 149V42.36h28.27v39.697h55.88V42.359h28.2V149h-28.2v-43.286h-55.88V149h-28.27zm-26.3 0h-28.27V83.009c0-1.514.02-2.612.07-3.296.05-.732.08-1.465.08-2.197h-.3c-.29.634-.73 1.367-1.31 2.197-.54.781-1.42 1.782-2.64 3.003L1015.58 149h-32.67V42.36h28.27v70.165h.29c.35-.927.76-1.611 1.25-2.05.54-.44 1.39-1.319 2.56-2.637l48.86-65.479h32.66V149zm-159.007 0l-53.027-50.537 21.972-15.674L975.22 149h-37.427zm-71.851-66.138h25.855l43.725-40.503h35.962l-71.338 63.355h-34.204V82.862zM851.807 149V42.36h28.271V149h-28.271zM699.609 96.339v-1.465c0-18.115 6.495-31.763 19.483-40.942 13.037-9.18 30.029-13.77 50.976-13.77 20.703 0 36.328 3.443 46.875 10.327 10.547 6.836 16.87 17.139 18.97 30.908l.366 2.93h-28.198l-.366-2.27c-1.465-7.08-5.005-12.598-10.62-16.553-5.616-3.955-14.356-5.933-26.221-5.933-12.988 0-23.071 3.003-30.249 9.01-7.178 6.005-10.767 14.72-10.767 26.147v1.538c0 11.621 3.663 20.507 10.987 26.66 7.373 6.152 17.383 9.228 30.029 9.228 11.865 0 20.654-1.831 26.367-5.493 5.713-3.662 9.253-9.204 10.62-16.626l.367-2.563h28.051l-.293 3.003c-1.66 13.574-7.666 23.754-18.017 30.542-10.303 6.787-26.197 10.18-47.681 10.18-21.631 0-38.818-4.687-51.562-14.062-12.745-9.424-19.117-23.023-19.117-40.796zm-149.853-.952v-.88c0-17.773 6.836-31.274 20.508-40.502 13.672-9.229 30.517-13.843 50.537-13.843 20.068 0 36.963 4.614 50.683 13.843 13.721 9.228 20.581 22.73 20.581 40.503v.879c0 18.506-6.86 32.446-20.581 41.821-13.72 9.326-30.615 13.989-50.683 13.989-20.02 0-36.865-4.663-50.537-13.989-13.672-9.375-20.508-23.315-20.508-41.821zm29.516.366c0 11.914 3.858 20.923 11.573 27.026 7.715 6.104 17.749 9.229 30.102 9.375 12.305.098 22.315-2.954 30.03-9.155 7.714-6.25 11.572-15.259 11.572-27.026V94.58c0-11.28-3.858-19.824-11.572-25.635-7.666-5.86-17.676-8.862-30.03-9.008-12.451-.147-22.509 2.783-30.176 8.789-7.666 5.957-11.499 14.55-11.499 25.78v1.246zM432.568 149V42.36h70.606c13.525 0 23.559 3.417 30.102 10.253 6.543 6.787 9.815 16.382 9.815 28.784 0 11.622-3.223 20.997-9.668 28.125-6.397 7.129-16.651 10.694-30.762 10.694H460.84V149h-28.272zm28.272-47.607h34.424c7.226 0 12.304-1.734 15.234-5.2 2.979-3.467 4.468-8.204 4.468-14.21 0-6.2-1.489-10.937-4.468-14.209-2.93-3.32-8.008-4.98-15.234-4.98H460.84v38.599zM302.124 64.625V42.359h115.869v22.266h-43.652V149h-28.638V64.625h-43.579zM166.333 149l54.272-107.007h28.638L303.296 149h-32.08l-34.058-72.95a154.688 154.688 0 00-1.684-3.295c-.391-.733-.806-1.538-1.245-2.417h-.147a58.035 58.035 0 01-1.245 2.49 306.97 306.97 0 00-1.611 3.296L197.241 149h-30.908zm26.514-22.852l8.423-18.53h66.943l8.13 18.53h-83.496zM0 149V42.36h32.52l43.212 69.36c.684 1.123 1.124 1.88 1.319 2.27.244.342.464.733.659 1.172h.146c.245-.439.464-.83.66-1.172.244-.39.708-1.147 1.391-2.27l42.92-69.36h33.032V149h-27.612l.147-64.307v-3.955h-.22c-.488.88-.879 1.538-1.172 1.978-.244.39-.61 1-1.099 1.83L86.06 149h-16.7L29.443 84.913c-.634-.977-1.05-1.611-1.245-1.904l-1.025-2.051h-.293v4.102l.146 63.94H0z" fill="#1F2022"/></svg>