<svg width="357" height="50" fill="none" xmlns="http://www.w3.org/2000/svg"><path d="M324.534 48.45V17.635h8.169v11.471h16.149V17.635H357V48.45h-8.148V35.942h-16.149V48.45h-8.169zm-7.598 0h-8.169V29.381c0-.437.007-.755.021-.952.014-.212.021-.423.021-.635h-.085a4.06 4.06 0 01-.381.635c-.155.226-.409.515-.762.868L293.465 48.45h-9.44V17.635h8.17V37.91h.084c.099-.268.219-.465.36-.592.155-.127.402-.381.741-.762l14.117-18.921h9.439V48.45zm-45.948 0l-15.323-14.603 6.349-4.53 19.789 19.133h-10.815zm-20.762-19.11h7.471l12.635-11.704h10.392L260.11 35.942h-9.884V29.34zm-4.085 19.111V17.635h8.17V48.45h-8.17zm-43.979-15.218v-.423c0-5.235 1.877-9.179 5.63-11.831 3.767-2.653 8.677-3.979 14.73-3.979 5.983 0 10.498.995 13.545 2.984 3.048 1.975 4.875 4.953 5.482 8.931l.106.847h-8.149l-.105-.656c-.424-2.046-1.447-3.64-3.069-4.783-1.623-1.143-4.148-1.714-7.577-1.714-3.753 0-6.667.867-8.741 2.603-2.074 1.735-3.111 4.254-3.111 7.555v.445c0 3.358 1.058 5.926 3.175 7.704 2.13 1.778 5.023 2.666 8.677 2.666 3.429 0 5.968-.529 7.619-1.587 1.651-1.058 2.674-2.66 3.069-4.804l.106-.741h8.106l-.085.868c-.48 3.922-2.215 6.864-5.206 8.825-2.977 1.962-7.57 2.942-13.778 2.942-6.251 0-11.217-1.354-14.9-4.063-3.683-2.724-5.524-6.653-5.524-11.789zm-43.302-.275v-.254c0-5.136 1.975-9.037 5.926-11.704 3.95-2.667 8.818-4 14.603-4 5.799 0 10.681 1.333 14.646 4 3.965 2.667 5.947 6.568 5.947 11.704v.254c0 5.347-1.982 9.376-5.947 12.085-3.965 2.695-8.847 4.042-14.646 4.042-5.785 0-10.653-1.347-14.603-4.042-3.951-2.71-5.926-6.738-5.926-12.085zm8.529.106c0 3.443 1.115 6.046 3.344 7.81 2.229 1.763 5.129 2.666 8.699 2.708 3.555.029 6.448-.853 8.677-2.645 2.229-1.806 3.344-4.41 3.344-7.81v-.402c0-3.26-1.115-5.728-3.344-7.407-2.215-1.694-5.108-2.561-8.677-2.604-3.598-.042-6.505.805-8.72 2.54-2.215 1.721-3.323 4.205-3.323 7.45v.36zM124.996 48.45V17.635h20.403c3.908 0 6.807.988 8.698 2.963 1.891 1.961 2.836 4.734 2.836 8.318 0 3.358-.931 6.067-2.794 8.127-1.848 2.06-4.811 3.09-8.889 3.09h-12.084v8.317h-8.17zm8.17-13.757h9.947c2.088 0 3.555-.5 4.402-1.502.861-1.002 1.291-2.37 1.291-4.106 0-1.792-.43-3.16-1.291-4.106-.847-.96-2.314-1.44-4.402-1.44h-9.947v11.154zM87.303 24.069v-6.434h33.482v6.434h-12.614V48.45h-8.275V24.07H87.303zM48.064 48.45l15.683-30.92h8.275l15.62 30.92h-9.27L68.53 27.37c-.211-.423-.374-.74-.487-.952a30.226 30.226 0 01-.36-.698h-.042c-.127.268-.247.508-.36.72a85.18 85.18 0 00-.465.952l-9.82 21.058h-8.932zm7.662-6.603l2.434-5.355h19.344l2.35 5.355H55.725zM0 48.45V17.635h9.397l12.487 20.043c.197.324.325.543.38.656.071.098.135.211.191.338h.043c.07-.127.134-.24.19-.338.07-.113.205-.332.402-.656l12.403-20.043h9.545V48.45h-7.98l.043-18.582v-1.143h-.063a8.902 8.902 0 01-.339.572c-.07.112-.176.289-.317.529L24.868 48.45h-4.825L8.508 29.931a74.662 74.662 0 00-.36-.55l-.296-.593h-.085v1.186L7.81 48.45H0zM355.33 6.681h-1.047v-2.55h-2.32l-.239-.116c-.533-.102-.944-.325-1.231-.67a1.853 1.853 0 01-.432-1.227c0-.603.229-1.084.688-1.444.461-.36 1.115-.54 1.96-.54h2.621v6.547zm-1.047-3.38V.97h-1.56c-.609 0-1.03.11-1.264.328a1.065 1.065 0 00-.351.819c0 .332.117.613.351.84.234.228.654.342 1.259.342h1.565zm-3.449 3.38h-1.124l1.902-3.021h1.093l-1.871 3.021zm-13.524 0h-1.048V1.987c0-.093.003-.186.009-.279l.018-.278h-.045c-.041.08-.086.159-.134.234a5.9 5.9 0 01-.198.274l-3.606 4.743h-1.07V.135h1.048v4.694c0 .093-.003.186-.009.278l-.018.28h.045c.041-.079.086-.155.134-.23a5.93 5.93 0 01.198-.279L336.24.135h1.07V6.68zm-23.902 0V.135h2.653c.866 0 1.532.183 1.996.548.468.363.702.86.702 1.493 0 .63-.234 1.129-.702 1.497-.464.369-1.13.553-1.996.553h-1.605v2.455h-1.048zm1.048-3.287h1.583c.617 0 1.05-.115 1.299-.346a1.14 1.14 0 00.378-.872c0-.35-.126-.638-.378-.863-.249-.228-.682-.342-1.299-.342h-1.583v2.423zm-18.588 3.287V.135h4.946v.84h-3.898v1.911h3.422v.837h-3.422V5.84h3.952v.841h-5zM277.107 3.53v-.243c0-1.043.307-1.851.921-2.424.618-.575 1.401-.863 2.352-.863.926 0 1.642.207 2.149.62.506.414.791.954.854 1.619l.004.054h-1.052l-.004-.058c-.036-.384-.214-.708-.535-.972-.318-.263-.791-.395-1.421-.395-.647 0-1.176.21-1.587.63-.411.419-.616 1.006-.616 1.762v.296c0 .762.205 1.35.616 1.767.411.417.941.625 1.592.625.644 0 1.122-.133 1.434-.4.312-.27.484-.592.517-.967l.004-.058h1.052l-.004.058a2.274 2.274 0 01-.841 1.61c-.503.417-1.224.625-2.162.625-.951 0-1.734-.285-2.352-.854-.614-.573-.921-1.384-.921-2.433zm-26.266 3.151h-1.048v-2.55h-2.32l-.238-.116c-.533-.102-.944-.325-1.232-.67a1.853 1.853 0 01-.431-1.227c0-.603.229-1.084.687-1.444.462-.36 1.115-.54 1.961-.54h2.621v6.547zm-1.048-3.38V.97h-1.56c-.608 0-1.029.11-1.263.328a1.065 1.065 0 00-.351.819c0 .332.117.613.351.84.234.228.653.342 1.259.342h1.564zm-3.448 3.38h-1.124l1.902-3.021h1.092l-1.87 3.021zm-19.442 0L229.78.094h1.088l2.873 6.587h-1.119l-2.001-4.703a9.98 9.98 0 01-.175-.422 6.778 6.778 0 01-.131-.396h-.054a6.875 6.875 0 01-.296.818l-2.023 4.703h-1.039zm1.241-1.605l.328-.836h3.655l.338.836h-4.321zm-19.432 1.605V.135h1.047v2.751h3.957V.135h1.043V6.68h-1.043V3.723h-3.957V6.68h-1.047zm-19.113 0V.135h1.047v2.751h3.957V.135h1.043V6.68h-1.043V3.723h-3.957V6.68h-1.047zm-18.983 0l2.877-6.587h1.088l2.873 6.587h-1.12l-2-4.703c-.066-.15-.125-.29-.176-.422a6.763 6.763 0 01-.13-.396h-.054a7.731 7.731 0 01-.13.4 8.066 8.066 0 01-.167.418l-2.023 4.703h-1.038zm1.24-1.605l.329-.836h3.655l.337.836h-4.321zm-18.398 1.605V.135h2.631c.8 0 1.428.138 1.883.414.459.275.688.716.688 1.321 0 .36-.105.652-.314.877a1.72 1.72 0 01-.783.477v.018c.384.096.696.274.935.535.243.257.365.596.365 1.016 0 .605-.24 1.071-.72 1.398-.476.327-1.109.49-1.897.49h-2.788zm1.03-.814h1.749c.548 0 .95-.097 1.205-.292.258-.195.387-.465.387-.81 0-.34-.129-.608-.387-.8-.255-.194-.657-.292-1.205-.292h-1.749v2.194zm0-2.99h1.592c.548 0 .942-.083 1.182-.251.24-.171.36-.412.36-.724s-.12-.549-.36-.71c-.24-.162-.634-.243-1.182-.243h-1.592v1.928zm-20.619.653v-.243c0-1.05.318-1.859.953-2.428.639-.573 1.46-.859 2.464-.859.995 0 1.812.286 2.45.859.642.57.963 1.379.963 2.428v.242c0 1.05-.321 1.86-.963 2.433-.638.57-1.455.854-2.45.854-1.001 0-1.821-.285-2.459-.854-.639-.573-.958-1.384-.958-2.433zm1.061.008c0 .774.215 1.369.643 1.785.432.417 1.003.625 1.713.625.707 0 1.275-.208 1.704-.625.432-.416.648-1.011.648-1.785v-.265c0-.77-.216-1.364-.648-1.78-.429-.417-.997-.625-1.704-.625-.71 0-1.281.208-1.713.625-.428.416-.643 1.01-.643 1.78v.265zm-18.582 3.143V.135H119c.867 0 1.532.183 1.997.548.467.363.701.86.701 1.493 0 .63-.234 1.129-.701 1.497-.465.369-1.13.553-1.997.553h-1.605v2.455h-1.047zm1.047-3.287h1.583c.617 0 1.051-.115 1.299-.346a1.14 1.14 0 00.378-.872c0-.35-.126-.638-.378-.863-.248-.228-.682-.342-1.299-.342h-1.583v2.423zm-14.113 3.287h-1.048V1.987c0-.093.003-.186.009-.279l.018-.278h-.045a2.967 2.967 0 01-.333.508L98.278 6.68h-1.07V.135h1.047v4.694c0 .093-.003.186-.009.278l-.018.28h.045a3.572 3.572 0 01.333-.509l3.606-4.743h1.07V6.68zM78.89.976V.135h6.047v.84h-2.5v5.706H81.4V.976h-2.51zM66.62 6.681h-1.048V1.987c0-.093.003-.186.01-.279l.017-.278h-.045a2.998 2.998 0 01-.332.508L61.616 6.68h-1.07V.135h1.047v4.694c0 .093-.003.186-.009.278l-.018.28h.045a3.525 3.525 0 01.333-.509L65.55.135h1.07V6.68zm-26.894 0V.135h1.322l2.261 4.784c.042.09.088.197.14.323.053.123.092.227.116.31h.04c.028-.086.062-.191.104-.314.045-.123.087-.23.126-.32L46.074.136h1.407V6.68h-1.016V1.9a3.875 3.875 0 01.031-.616h-.04a6.17 6.17 0 01-.112.307 4.782 4.782 0 01-.126.31l-2.185 4.78h-.949l-2.212-4.78a3.214 3.214 0 01-.216-.616h-.045a5.768 5.768 0 01.045.616v4.78h-.93zm-13.067 0H25.61V1.987c0-.093.003-.186.009-.279l.018-.278h-.045a2.936 2.936 0 01-.333.508L21.654 6.68h-1.07V.135h1.048v4.694c0 .093-.003.186-.009.278l-.018.28h.045a3.572 3.572 0 01.333-.509L25.588.135h1.07V6.68zM2.376.135h5.139V6.68H6.472V.976H3.297l-.193 3.3c-.045.803-.181 1.426-.409 1.87-.225.444-.626.665-1.205.665a1.38 1.38 0 01-.252-.022c-.08-.012-.16-.03-.238-.054v-.944a.939.939 0 00.373.067c.273-.003.462-.145.567-.427.105-.282.174-.718.206-1.308l.23-3.988z" fill="#1F2022"/></svg>