<svg width="321" height="23" fill="none" xmlns="http://www.w3.org/2000/svg"><path d="M18.517 20.408c-.788.462-1.984.77-2.579.925-1.79.462-3.52.462-4.382.462-2.885 0-4.335-.496-5.056-.744-2.165-.743-3.133-1.641-3.614-2.09C1.443 17.608.962 16.368.72 15.751 0 13.89 0 12.376 0 11.619c0-2.506.494-3.82.741-4.476.735-1.976 1.65-2.9 2.098-3.356C4.202 2.4 5.504 1.911 6.159 1.663 8.116.918 9.733.918 10.541.918c2.465 0 3.74.255 4.382.375 1.924.382 3.04.925 3.594 1.206v7.082c-1.31-.429-2.605-.623-3.253-.724-1.937-.294-3.34-.294-4.042-.294-2.298 0-3.153.469-3.58.71-1.283.71-1.283 1.628-1.283 2.09 0 1.387.922 1.923 1.376 2.191 1.383.804 3.153.804 4.042.804 1.77 0 2.926-.134 3.494-.194 1.723-.194 2.732-.442 3.233-.563v6.814l.013-.007zm12.739-6.191c.988 0 1.57-.12 1.857-.18.868-.181 1.309-.436 1.523-.563.654-.376.922-.737 1.049-.925.394-.543.394-1.025.394-1.266 0-.724-.26-1.086-.394-1.266a2.844 2.844 0 00-1.05-.892c-.654-.341-1.248-.462-1.542-.529-.889-.18-1.523-.18-1.837-.18-.949 0-1.543.12-1.837.18-.889.181-1.336.422-1.557.543-.674.362-.935.71-1.068.89-.395.53-.395 1.013-.395 1.247 0 .724.26 1.085.395 1.266.394.543.841.784 1.068.905.675.362 1.256.496 1.543.563.869.194 1.53.194 1.857.194m11.123-2.486c0 2.473-.535 3.719-.802 4.349-.802 1.876-1.777 2.733-2.264 3.162-1.463 1.286-2.833 1.715-3.514 1.923-2.051.643-3.714.643-4.55.643-2.498 0-3.86-.462-4.548-.69-2.051-.69-3.013-1.568-3.494-2.01-1.443-1.313-1.977-2.566-2.251-3.196-.802-1.876-.802-3.457-.802-4.248 0-2.506.528-3.832.788-4.495.789-1.99 1.764-2.915 2.252-3.377 1.463-1.387 2.825-1.876 3.513-2.124C28.764.91 30.427.91 31.263.91c2.531 0 3.894.496 4.582.744 2.05.744 3.013 1.675 3.494 2.137a9.25 9.25 0 012.25 3.39c.802 1.99.802 3.685.802 4.53m19.432 2.835c1.971 0 2.826-.516 3.254-.77 1.282-.778 1.282-1.83 1.282-2.36 0-1.48-.828-1.99-1.249-2.237-1.25-.757-2.605-.757-3.28-.757-2.004 0-2.846.469-3.266.71-1.263.71-1.263 1.762-1.263 2.292 0 1.514.868 2.05 1.296 2.324 1.296.804 2.592.804 3.233.804m10.368-3.296c0 2.506-.468 3.819-.709 4.476-.708 1.976-1.596 2.894-2.037 3.356-1.33 1.387-2.612 1.876-3.253 2.124-1.917.744-3.56.744-4.382.744-3.875 0-5.505-1.186-6.32-1.776-2.444-1.775-3.039-3.973-3.333-5.072h-1.182v6.52h-6.96V1.246h6.96v6.225h1.249c.46-1.448 1.009-2.265 1.282-2.667.822-1.22 1.624-1.789 2.018-2.077 1.196-.858 2.238-1.173 2.759-1.333 1.563-.476 2.872-.476 3.533-.476 4.89 0 6.72 1.802 7.636 2.7 2.738 2.7 2.739 5.997 2.739 7.638zm1.282 4.375c2.004.462 3.327.563 3.988.61 1.984.147 3.3.147 3.954.147 1.343 0 1.904-.067 2.185-.1.842-.1 1.156-.235 1.316-.295.474-.194.594-.375.654-.462a.963.963 0 00.067-1.019c-.113-.234-.347-.362-.46-.429-.341-.194-.762-.288-.97-.328-.62-.127-1.282-.127-1.61-.127H76.76V9.675h5.912c.527 0 .841-.034 1.002-.047.474-.047.714-.127.835-.168.36-.114.507-.281.574-.361.214-.248.214-.51.214-.644 0-.428-.14-.603-.214-.69-.214-.261-.554-.375-.721-.429-.508-.16-1.09-.207-1.383-.227-.868-.067-1.743-.067-2.184-.067-.722 0-1.356.047-1.677.067-.955.067-1.623.154-1.957.194a35.68 35.68 0 00-1.97.315c-.97.18-1.47.335-1.724.409V2.432c1.576-.563 2.879-.878 3.527-1.038C78.95.91 80.74.91 81.643.91c2.004 0 3.186.174 3.774.261 1.77.262 2.672.71 3.12.938 1.342.677 1.87 1.42 2.13 1.796.789 1.119.789 2.285.789 2.868 0 1.775-.528 2.492-.788 2.847-.789 1.072-1.624 1.555-2.038 1.796.628.234 1.049.462 1.263.576.641.348.955.75 1.115.958.475.61.628 1.22.708 1.534.228.925.1 1.823.034 2.272-.36 2.633-2.078 3.49-2.94 3.92-2.578 1.286-5.47 1.286-6.913 1.286-2.659 0-4.095-.248-4.81-.376-2.15-.381-3.133-.777-3.627-.971v-4.971l.02-.014zm34.115-5.561l2.264-8.824h9.486l2.071 20.382h-6.961l-.788-8.824h-.822l-1.737 8.824h-7.849l-1.736-8.824h-.822l-.788 8.824h-6.96l2.063-20.382h9.493l2.264 8.824h.822zm16.446 4.543c.561.261 1.042.341 1.282.382.722.114 1.076.114 1.25.114.754 0 1.015-.068 1.149-.101L121.088 1.24h7.555l3.053 8.167h.822l2.926-8.168h7.548l-7.421 16.369c-1.016 2.204-2.145 3.028-2.712 3.443-1.691 1.233-3.594 1.233-4.55 1.233-.427 0-.808-.02-1.002-.033a15.208 15.208 0 01-1.182-.114c-.608-.08-.982-.161-1.162-.195-.561-.113-.802-.227-.922-.28v-7.05zm26.727-3.558h-.855l-2.986 10.573h-7.221l5.35-20.389h10.575l5.35 20.389h-7.221l-2.992-10.573zm20.033 4.677c2.064 0 2.672-.315 2.973-.476.901-.476.901-1.112.901-1.434 0-.951-.654-1.226-.988-1.367-.989-.408-2.191-.408-2.793-.408-.527 0-.774.006-.901.013-.381.02-.662.04-.802.047v3.49c.528.068.775.088.902.101.381.034.601.034.708.034zm-8.51-14.492h6.893v4.944a7.08 7.08 0 01.969-.067h.868c2.038 0 3.207.255 3.795.382 1.756.382 2.632.972 3.072 1.266 1.316.885 1.817 1.876 2.065 2.372.754 1.48.754 2.948.754 3.685 0 3.719-1.616 5.139-2.431 5.85-2.432 2.123-5.558 2.123-7.128 2.123-4.629 0-7.455-.395-8.864-.59V1.247l.007-.006zm37.595 7.249h-6.106v13.139h-6.927V8.488h-5.812V1.247h18.845V8.49zm7.127 2.861c0 .563.107.898.167 1.072.161.509.428.777.555.904.394.396.821.55 1.035.623.641.235 1.276.235 1.59.235V8.522c-.949 0-1.383.155-1.59.228-.641.228-.902.496-1.035.63-.394.395-.501.737-.555.904-.167.51-.167.885-.167 1.072m13.627-.2c0-.496-.106-.811-.167-.972a2.163 2.163 0 00-.541-.858 2.346 2.346 0 00-1.015-.59c-.641-.214-1.296-.214-1.623-.214v5.695c1.643 0 2.211-.562 2.498-.837.855-.838.855-1.762.855-2.225m-3.387-9.58c1.871.194 3.006.656 3.581.89 1.71.69 2.592 1.495 3.039 1.897 1.33 1.199 1.857 2.358 2.118 2.928.788 1.728.788 3.27.788 4.033 0 2.305-.521 3.437-.788 4-.788 1.695-1.677 2.465-2.118 2.847-1.329 1.153-2.471 1.582-3.039 1.796-1.71.643-2.953.777-3.581.844v1.548h-6.893V20.81c-1.971-.2-3.12-.636-3.694-.857-1.724-.657-2.579-1.427-3.006-1.81-1.283-1.152-1.784-2.284-2.038-2.847-.755-1.695-.755-3.236-.755-4 0-2.305.508-3.457.755-4.033.755-1.729 1.623-2.52 2.051-2.915a9.28 9.28 0 013.019-1.876 12.798 12.798 0 013.661-.89V0h6.894v1.581l.006-.006zm18.45-.335v8.14h.722l4.696-8.14h7.548v20.388h-6.927V13.46h-.755l-4.696 8.168h-7.548V1.239h6.96zm25.672 9.815h-.855l-2.986 10.573h-7.221l5.35-20.389h10.575l5.35 20.389h-7.221l-2.992-10.573zm20.033 4.677c2.064 0 2.672-.315 2.973-.476.901-.476.901-1.112.901-1.434 0-.951-.654-1.226-.988-1.367-.989-.408-2.191-.408-2.792-.408-.528 0-.775.006-.902.013-.381.02-.662.04-.802.047v3.49c.528.068.775.088.902.101.381.034.601.034.708.034zM272.911 1.24h6.894v4.944a7.08 7.08 0 01.969-.067h.868c2.038 0 3.207.255 3.794.382 1.757.382 2.632.972 3.073 1.266 1.316.885 1.817 1.876 2.064 2.372.755 1.48.755 2.948.755 3.685 0 3.719-1.623 5.139-2.431 5.85-2.432 2.123-5.558 2.123-7.128 2.123-4.629 0-7.455-.395-8.864-.59V1.247l.006-.006zm34.048 8.83l2.265-8.824h9.485l2.071 20.382h-6.96l-.789-8.824h-.821l-1.737 8.824h-7.849l-1.737-8.824h-.828l-.782 8.824h-6.96l2.064-20.382h9.492l2.265 8.824h.821z" fill="#1F2022"/></svg>