<svg width="200" height="40" viewBox="0 0 200 40" fill="none" xmlns="http://www.w3.org/2000/svg">
<path d="M7.348 36.112C6.32133 36.112 5.46267 35.8927 4.772 35.454C4.09067 35.0153 3.57267 34.4133 3.218 33.648C2.87267 32.8827 2.7 32.0193 2.7 31.058C2.7 30.0873 2.87267 29.2193 3.218 28.454C3.57267 27.6887 4.09067 27.0867 4.772 26.648C5.46267 26.2093 6.32133 25.99 7.348 25.99C8.37467 25.99 9.22867 26.2093 9.91 26.648C10.5913 27.0867 11.1047 27.6887 11.45 28.454C11.8047 29.2193 11.982 30.0873 11.982 31.058C11.982 32.0193 11.8047 32.8827 11.45 33.648C11.1047 34.4133 10.5913 35.0153 9.91 35.454C9.22867 35.8927 8.37467 36.112 7.348 36.112ZM7.348 35.202C8.16933 35.202 8.846 35.0153 9.378 34.642C9.91 34.2687 10.302 33.7693 10.554 33.144C10.8153 32.5093 10.946 31.814 10.946 31.058C10.946 30.4887 10.8713 29.952 10.722 29.448C10.582 28.944 10.3627 28.5007 10.064 28.118C9.76533 27.7353 9.38733 27.4367 8.93 27.222C8.482 27.0073 7.95467 26.9 7.348 26.9C6.536 26.9 5.85933 27.0913 5.318 27.474C4.786 27.8473 4.38467 28.3513 4.114 28.986C3.85267 29.6113 3.722 30.302 3.722 31.058C3.722 31.8047 3.85267 32.4953 4.114 33.13C4.37533 33.7553 4.77667 34.2593 5.318 34.642C5.85933 35.0153 6.536 35.202 7.348 35.202ZM15.3237 36V26.102H21.8897V27.012H16.3317V31.002H21.1477V31.912H16.3317V36H15.3237ZM25.0772 36V26.102H31.6432V27.012H26.0852V31.002H30.9012V31.912H26.0852V36H25.0772ZM34.8308 36V26.102H35.8388V36H34.8308ZM43.7208 36.112C42.7034 36.112 41.8541 35.8973 41.1728 35.468C40.5008 35.0293 40.0014 34.4273 39.6748 33.662C39.3481 32.8967 39.1848 32.0287 39.1848 31.058C39.1848 30.0967 39.3528 29.2333 39.6888 28.468C40.0248 27.7027 40.5288 27.1007 41.2008 26.662C41.8821 26.214 42.7314 25.99 43.7488 25.99C44.4208 25.99 45.0088 26.0927 45.5128 26.298C46.0261 26.494 46.4508 26.7833 46.7868 27.166C47.1321 27.5393 47.3748 27.992 47.5148 28.524H46.4928C46.3061 28.0107 45.9701 27.614 45.4848 27.334C45.0088 27.0447 44.4301 26.9 43.7488 26.9C42.9181 26.9 42.2414 27.0913 41.7188 27.474C41.2054 27.8567 40.8228 28.3607 40.5708 28.986C40.3281 29.6113 40.2068 30.288 40.2068 31.016C40.2068 31.7813 40.3328 32.4813 40.5848 33.116C40.8368 33.7507 41.2241 34.2593 41.7468 34.642C42.2694 35.0153 42.9368 35.202 43.7488 35.202C44.1968 35.202 44.6121 35.1413 44.9948 35.02C45.3774 34.8893 45.7088 34.7027 45.9888 34.46C46.2688 34.2173 46.4694 33.9233 46.5908 33.578H47.6968C47.5381 34.11 47.2721 34.5673 46.8988 34.95C46.5254 35.3233 46.0681 35.6127 45.5268 35.818C44.9948 36.014 44.3928 36.112 43.7208 36.112ZM50.9608 36V26.102H51.9688V36H50.9608ZM54.7828 36L58.5348 26.102H59.9208L63.6728 36H62.5668L61.7548 33.816H56.7008L55.8888 36H54.7828ZM57.0368 32.906H61.4048L59.2208 27.04L57.0368 32.906ZM66.4894 36V26.102H67.4974V35.09H73.0554V36H66.4894ZM81.0745 36V26.102H84.5465C85.5732 26.102 86.4272 26.312 87.1085 26.732C87.7992 27.1427 88.3172 27.7213 88.6625 28.468C89.0172 29.2053 89.1945 30.0687 89.1945 31.058C89.1945 32.038 89.0218 32.9013 88.6765 33.648C88.3312 34.3853 87.8132 34.964 87.1225 35.384C86.4318 35.7947 85.5732 36 84.5465 36H81.0745ZM82.0825 35.09H84.4625C85.2932 35.09 85.9792 34.9173 86.5205 34.572C87.0712 34.2267 87.4818 33.7553 87.7525 33.158C88.0232 32.5513 88.1585 31.8513 88.1585 31.058C88.1585 30.2833 88.0278 29.5927 87.7665 28.986C87.5052 28.3793 87.1085 27.8987 86.5765 27.544C86.0445 27.1893 85.3632 27.012 84.5325 27.012H82.0825V35.09ZM92.5507 36V26.102H93.5587V36H92.5507ZM100.965 36.112C100.358 36.112 99.784 36.0327 99.2427 35.874C98.7107 35.706 98.2487 35.44 97.8567 35.076C97.4647 34.7027 97.1894 34.2033 97.0307 33.578H98.0947C98.2534 33.998 98.4867 34.3293 98.7947 34.572C99.1027 34.8053 99.448 34.9687 99.8307 35.062C100.223 35.1553 100.615 35.202 101.007 35.202C101.417 35.202 101.805 35.146 102.169 35.034C102.533 34.9127 102.831 34.7213 103.065 34.46C103.298 34.1893 103.415 33.8487 103.415 33.438C103.415 33.102 103.349 32.8313 103.219 32.626C103.097 32.4207 102.925 32.2573 102.701 32.136C102.477 32.0053 102.22 31.898 101.931 31.814C101.641 31.7207 101.333 31.6413 101.007 31.576C100.689 31.5107 100.372 31.436 100.055 31.352C99.7467 31.268 99.4574 31.1653 99.1867 31.044C98.9534 30.9507 98.7247 30.8433 98.5007 30.722C98.286 30.5913 98.09 30.4373 97.9127 30.26C97.7447 30.0733 97.6094 29.854 97.5067 29.602C97.404 29.3407 97.3527 29.042 97.3527 28.706C97.3527 28.3047 97.418 27.9547 97.5487 27.656C97.6794 27.348 97.852 27.0913 98.0667 26.886C98.2907 26.6713 98.5474 26.4987 98.8367 26.368C99.1354 26.2373 99.4527 26.144 99.7887 26.088C100.125 26.0227 100.465 25.99 100.811 25.99C101.361 25.99 101.879 26.074 102.365 26.242C102.85 26.4007 103.256 26.662 103.583 27.026C103.909 27.3807 104.101 27.8613 104.157 28.468H103.149C103.083 28.076 102.934 27.768 102.701 27.544C102.467 27.3107 102.183 27.1473 101.847 27.054C101.52 26.9513 101.175 26.9 100.811 26.9C100.54 26.9 100.26 26.928 99.9707 26.984C99.6907 27.0307 99.4294 27.1193 99.1867 27.25C98.9534 27.3807 98.7667 27.558 98.6267 27.782C98.4867 27.9967 98.4167 28.272 98.4167 28.608C98.4167 28.9067 98.4727 29.1633 98.5847 29.378C98.706 29.5833 98.8694 29.756 99.0747 29.896C99.28 30.0267 99.504 30.134 99.7467 30.218C100.176 30.3767 100.633 30.5027 101.119 30.596C101.613 30.6893 102.08 30.8107 102.519 30.96C102.799 31.0533 103.055 31.17 103.289 31.31C103.531 31.4407 103.737 31.5993 103.905 31.786C104.082 31.9727 104.217 32.1873 104.311 32.43C104.404 32.6633 104.451 32.9293 104.451 33.228C104.451 33.76 104.357 34.2127 104.171 34.586C103.984 34.95 103.727 35.244 103.401 35.468C103.074 35.692 102.701 35.8553 102.281 35.958C101.861 36.0607 101.422 36.112 100.965 36.112ZM110.032 36V27.012H106.784V26.102H114.288V27.012H111.04V36H110.032ZM117.163 36V26.102H120.831C121.372 26.102 121.857 26.158 122.287 26.27C122.716 26.3727 123.085 26.5453 123.393 26.788C123.701 27.0307 123.934 27.348 124.093 27.74C124.261 28.1227 124.345 28.594 124.345 29.154C124.345 29.686 124.242 30.148 124.037 30.54C123.841 30.9227 123.57 31.2353 123.225 31.478C122.889 31.7207 122.497 31.9027 122.049 32.024L124.177 36H123.057L121.027 32.192H118.171V36H117.163ZM118.171 31.282H120.439C120.821 31.282 121.181 31.254 121.517 31.198C121.862 31.1327 122.165 31.0253 122.427 30.876C122.697 30.7173 122.907 30.498 123.057 30.218C123.215 29.9287 123.299 29.56 123.309 29.112C123.309 28.58 123.201 28.1647 122.987 27.866C122.781 27.558 122.483 27.3387 122.091 27.208C121.699 27.0773 121.237 27.012 120.705 27.012H118.171V31.282ZM127.764 36V26.102H128.772V36H127.764ZM132.65 36V26.102H136.08C136.547 26.102 136.976 26.1393 137.368 26.214C137.76 26.2887 138.105 26.4147 138.404 26.592C138.703 26.7693 138.931 27.0167 139.09 27.334C139.258 27.6513 139.342 28.0527 139.342 28.538C139.342 29.0887 139.202 29.56 138.922 29.952C138.651 30.344 138.264 30.6287 137.76 30.806C138.423 30.8993 138.936 31.156 139.3 31.576C139.673 31.996 139.86 32.5513 139.86 33.242C139.86 33.7833 139.753 34.236 139.538 34.6C139.323 34.9547 139.034 35.2347 138.67 35.44C138.315 35.6453 137.905 35.79 137.438 35.874C136.981 35.958 136.505 36 136.01 36H132.65ZM133.658 35.09H135.968C136.276 35.09 136.598 35.0713 136.934 35.034C137.27 34.9967 137.583 34.922 137.872 34.81C138.161 34.6887 138.395 34.502 138.572 34.25C138.749 33.998 138.838 33.662 138.838 33.242C138.838 32.8687 138.768 32.5653 138.628 32.332C138.488 32.0987 138.297 31.9167 138.054 31.786C137.821 31.646 137.555 31.5527 137.256 31.506C136.967 31.45 136.668 31.422 136.36 31.422H133.658V35.09ZM133.658 30.526H135.688C136.033 30.526 136.365 30.4933 136.682 30.428C137.009 30.3627 137.298 30.2553 137.55 30.106C137.802 29.9567 137.998 29.7607 138.138 29.518C138.287 29.2753 138.362 28.972 138.362 28.608C138.371 28.1413 138.269 27.796 138.054 27.572C137.839 27.348 137.559 27.1987 137.214 27.124C136.869 27.0493 136.495 27.012 136.094 27.012H133.658V30.526ZM147.046 36.112C146.131 36.112 145.385 35.9253 144.806 35.552C144.237 35.1693 143.817 34.6513 143.546 33.998C143.285 33.3447 143.154 32.598 143.154 31.758V26.102H144.162V31.73C144.162 32.3647 144.255 32.948 144.442 33.48C144.629 34.0027 144.932 34.4227 145.352 34.74C145.781 35.048 146.351 35.202 147.06 35.202C147.769 35.202 148.329 35.048 148.74 34.74C149.16 34.4227 149.459 34.0027 149.636 33.48C149.823 32.948 149.916 32.3647 149.916 31.73V26.102H150.924V31.758C150.924 32.5887 150.789 33.3353 150.518 33.998C150.257 34.6513 149.841 35.1693 149.272 35.552C148.703 35.9253 147.961 36.112 147.046 36.112ZM156.967 36V27.012H153.719V26.102H161.223V27.012H157.975V36H156.967ZM168.105 36.112C167.078 36.112 166.219 35.8927 165.529 35.454C164.847 35.0153 164.329 34.4133 163.975 33.648C163.629 32.8827 163.457 32.0193 163.457 31.058C163.457 30.0873 163.629 29.2193 163.975 28.454C164.329 27.6887 164.847 27.0867 165.529 26.648C166.219 26.2093 167.078 25.99 168.105 25.99C169.131 25.99 169.985 26.2093 170.667 26.648C171.348 27.0867 171.861 27.6887 172.207 28.454C172.561 29.2193 172.739 30.0873 172.739 31.058C172.739 32.0193 172.561 32.8827 172.207 33.648C171.861 34.4133 171.348 35.0153 170.667 35.454C169.985 35.8927 169.131 36.112 168.105 36.112ZM168.105 35.202C168.926 35.202 169.603 35.0153 170.135 34.642C170.667 34.2687 171.059 33.7693 171.311 33.144C171.572 32.5093 171.703 31.814 171.703 31.058C171.703 30.4887 171.628 29.952 171.479 29.448C171.339 28.944 171.119 28.5007 170.821 28.118C170.522 27.7353 170.144 27.4367 169.687 27.222C169.239 27.0073 168.711 26.9 168.105 26.9C167.293 26.9 166.616 27.0913 166.075 27.474C165.543 27.8473 165.141 28.3513 164.871 28.986C164.609 29.6113 164.479 30.302 164.479 31.058C164.479 31.8047 164.609 32.4953 164.871 33.13C165.132 33.7553 165.533 34.2593 166.075 34.642C166.616 35.0153 167.293 35.202 168.105 35.202ZM176.08 36V26.102H179.748C180.29 26.102 180.775 26.158 181.204 26.27C181.634 26.3727 182.002 26.5453 182.31 26.788C182.618 27.0307 182.852 27.348 183.01 27.74C183.178 28.1227 183.262 28.594 183.262 29.154C183.262 29.686 183.16 30.148 182.954 30.54C182.758 30.9227 182.488 31.2353 182.142 31.478C181.806 31.7207 181.414 31.9027 180.966 32.024L183.094 36H181.974L179.944 32.192H177.088V36H176.08ZM177.088 31.282H179.356C179.739 31.282 180.098 31.254 180.434 31.198C180.78 31.1327 181.083 31.0253 181.344 30.876C181.615 30.7173 181.825 30.498 181.974 30.218C182.133 29.9287 182.217 29.56 182.226 29.112C182.226 28.58 182.119 28.1647 181.904 27.866C181.699 27.558 181.4 27.3387 181.008 27.208C180.616 27.0773 180.154 27.012 179.622 27.012H177.088V31.282Z" fill="#1F2022"/>
<path d="M31.2983 13.0954H34.5715C35.1308 13.0954 35.7201 13.0377 36.3132 12.8972C36.9025 12.7855 37.4355 12.5296 37.9047 12.1621C38.3777 11.7945 38.7606 11.2828 39.0834 10.6054C39.3799 9.95311 39.5564 9.07385 39.5564 8.02883C39.5564 6.9838 39.41 6.10094 39.0834 5.42348C38.7869 4.74241 38.374 4.23431 37.9047 3.86675C37.4318 3.49919 36.9025 3.24334 36.3132 3.13163C35.7239 3.01992 35.1646 2.93343 34.6015 2.93343H31.3283V13.0738L31.2983 13.1026V13.0954ZM34.5715 15.7007H28.2615V0.288441H34.5715C36.8725 0.288441 38.7306 0.940677 40.2058 2.21633C41.0015 2.8974 41.5909 3.74783 41.9737 4.70997C42.3866 5.67212 42.5631 6.7784 42.5631 7.96757C42.5631 9.15674 42.3566 10.2918 41.9737 11.254C41.5608 12.2161 40.9715 13.0666 40.2058 13.7476C39.4963 14.371 38.6442 14.8539 37.6983 15.1638C36.7561 15.4737 35.6938 15.6467 34.5715 15.6467V15.7044V15.7007Z" fill="#2C2D2E"/>
<path d="M7.23342 0.292046H4.16666V15.6755H7.23342V0.292046Z" fill="#2C2D2E"/>
<path d="M13.8399 6.52255V15.6755H10.7731V0.292046L21.625 9.58195V0.292046H24.6918V15.6755L13.8399 6.52255Z" fill="#2C2D2E"/>
<path d="M70.7307 8.47927C71.1736 8.47927 71.5865 8.39279 71.9094 8.25225C72.2322 8.11171 72.5287 7.91352 72.7352 7.65767C72.9416 7.40182 73.088 7.12074 73.2081 6.80724C73.2982 6.49733 73.3545 6.15499 73.3545 5.78743C73.3545 5.41987 73.2945 5.07754 73.1481 4.7388C73.0317 4.40007 72.8252 4.08656 72.5888 3.83071C72.3523 3.57486 72.0295 3.34784 71.6729 3.17847C71.32 3.00911 70.8771 2.92263 70.4041 2.92263H66.658V8.47567H70.7269L70.7307 8.47927ZM70.7307 0.320875C71.5265 0.320875 72.266 0.46141 72.9416 0.74609C73.6511 1.03077 74.2404 1.42716 74.7396 1.90643C75.2426 2.3893 75.6555 2.98389 75.9483 3.63612C76.2449 4.31719 76.3912 5.02348 76.3912 5.76221C76.3912 6.50093 76.2749 7.20723 76.0084 7.85947C75.7419 8.51171 75.359 9.07746 74.8597 9.56033C74.3567 10.0432 73.7111 10.4108 72.9116 10.6918C72.1458 10.9765 71.2299 11.0882 70.1977 11.0882H66.6279V15.6791H63.5612V0.266819H70.6969L70.7269 0.324477L70.7307 0.320875Z" fill="#2C2D2E"/>
<path d="M180.909 2.8974H176.337V15.6755H173.27V2.8974H168.668V0.292046H180.909V2.8974Z" fill="#2C2D2E"/>
<path d="M60.5545 0.320877H46.1328V15.7296H60.5545V13.0666H49.1996V2.92623H60.5545V0.320877Z" fill="#2C2D2E"/>
<path d="M52.653 10.0072L56.8383 8.02523L52.7393 5.98563L52.653 10.0072Z" fill="#960028"/>
<path d="M195.597 9.44142C195.39 8.95854 195.094 8.59098 194.771 8.25225C194.418 7.94235 194.035 7.6865 193.592 7.45947C193.149 7.23245 192.707 7.09192 192.264 6.9766C191.821 6.86489 191.378 6.74958 190.965 6.69192C190.552 6.63426 190.199 6.55138 189.872 6.49372C189.46 6.40724 189.047 6.29553 188.604 6.20905C188.161 6.12256 187.778 6.01085 187.395 5.87032C187.042 5.72978 186.716 5.56041 186.509 5.35861C186.273 5.16042 186.156 4.90457 186.156 4.59467C186.156 4.28476 186.246 4.02891 186.453 3.83071C186.659 3.63252 186.896 3.43433 187.189 3.31901C187.485 3.17847 187.808 3.09199 188.131 3.03434C188.454 2.97668 188.78 2.94785 189.017 2.94785H195.12V0.313667H189.133C188.454 0.313667 187.778 0.371325 187.038 0.511863C186.329 0.652401 185.653 0.879424 185.064 1.22176C184.475 1.56049 183.972 2.01453 183.619 2.58029C183.236 3.14604 183.06 3.88477 183.06 4.7316C183.06 5.57843 183.176 5.83788 183.382 6.28833C183.589 6.74237 183.885 7.10993 184.238 7.41984C184.591 7.72974 184.974 8.01442 185.417 8.21261C185.86 8.41081 186.303 8.58017 186.746 8.72431C187.189 8.86845 187.632 8.95133 188.074 9.03422C188.487 9.1207 188.87 9.17476 189.197 9.23241C189.67 9.3189 190.139 9.40178 190.582 9.48827C191.025 9.57475 191.408 9.68645 191.731 9.82699C192.053 9.96753 192.32 10.1369 192.526 10.3387C192.733 10.5369 192.823 10.7927 192.823 11.1026C192.823 11.4126 192.763 11.5567 192.616 11.8125C192.5 12.0396 192.294 12.2666 192.027 12.436C191.761 12.6053 191.438 12.7747 191.055 12.89C190.672 13.0017 190.229 13.0305 189.726 13.0305H183.653V15.6647H189.756C190.672 15.6647 191.498 15.5782 192.234 15.38C192.969 15.1818 193.619 14.8972 194.152 14.5296C194.681 14.162 195.094 13.6792 195.39 13.1134C195.687 12.5477 195.833 11.8666 195.833 11.1026C195.833 10.3387 195.717 9.88465 195.511 9.40178L195.601 9.43061L195.597 9.44142Z" fill="#2C2D2E"/>
<path d="M147.261 0.292046H132.839V15.7008H147.261V13.0377H135.906V2.8974H147.261V0.292046Z" fill="#2C2D2E"/>
<path d="M94.2625 0.320877H79.8409V15.7296H94.2625V13.0666H82.9076V2.92623H94.2625V0.320877Z" fill="#2C2D2E"/>
<path d="M100.839 6.52255V15.6755H97.7722V0.292046L108.624 9.58195V0.292046H111.691V15.6755L100.839 6.52255Z" fill="#2C2D2E"/>
<path d="M118.387 13.0954H121.661C122.22 13.0954 122.809 13.0377 123.402 12.8972C123.992 12.7855 124.525 12.5296 124.994 12.1621C125.467 11.7945 125.85 11.2828 126.173 10.6054C126.469 9.95311 126.646 9.07385 126.646 8.02883C126.646 6.9838 126.499 6.10094 126.173 5.42348C125.876 4.74241 125.463 4.23431 124.994 3.86675C124.521 3.49919 123.992 3.24334 123.402 3.13163C122.813 3.01992 122.254 2.93343 121.691 2.93343H118.417V13.0738L118.387 13.1026V13.0954ZM121.631 15.7296H115.321V0.317265H121.631C123.932 0.317265 125.79 0.969506 127.265 2.24516C128.061 2.92622 128.65 3.77666 129.033 4.7388C129.446 5.70094 129.622 6.80723 129.622 7.9964C129.622 9.18556 129.416 10.3207 129.033 11.2828C128.62 12.245 128.031 13.0954 127.265 13.7765C126.555 14.3999 125.703 14.8827 124.757 15.1926C123.815 15.5026 122.753 15.6755 121.631 15.6755V15.7332V15.7296Z" fill="#2C2D2E"/>
<path d="M154.809 6.55138V15.7008H151.743V0.320877L162.594 9.61079V0.320877H165.661V15.7008L154.809 6.55138Z" fill="#2C2D2E"/>
<path d="M86.6838 10.0072L90.8729 8.02523L86.7439 5.98563L86.6838 10.0072Z" fill="#960028"/>
<path d="M139.532 10.0072L143.721 8.02523L139.622 5.98563L139.532 10.0072Z" fill="#960028"/>
</svg>
