<svg width="60" height="50" viewBox="0 0 60 50" fill="none" xmlns="http://www.w3.org/2000/svg">
<path d="M25 0H0V27H25V22.3337H5.31624V4.56525H25V0Z" fill="#2C2D2E"/>
<path d="M11 17L19 13.5502L11.165 10L11 17Z" fill="#960028"/>
<path d="M3.056 38.064C2.46933 38.064 1.97867 37.9387 1.584 37.688C1.19467 37.4373 0.898667 37.0933 0.696 36.656C0.498667 36.2187 0.4 35.7253 0.4 35.176C0.4 34.6213 0.498667 34.1253 0.696 33.688C0.898667 33.2507 1.19467 32.9067 1.584 32.656C1.97867 32.4053 2.46933 32.28 3.056 32.28C3.64267 32.28 4.13067 32.4053 4.52 32.656C4.90933 32.9067 5.20267 33.2507 5.4 33.688C5.60267 34.1253 5.704 34.6213 5.704 35.176C5.704 35.7253 5.60267 36.2187 5.4 36.656C5.20267 37.0933 4.90933 37.4373 4.52 37.688C4.13067 37.9387 3.64267 38.064 3.056 38.064ZM3.056 37.544C3.52533 37.544 3.912 37.4373 4.216 37.224C4.52 37.0107 4.744 36.7253 4.888 36.368C5.03733 36.0053 5.112 35.608 5.112 35.176C5.112 34.8507 5.06933 34.544 4.984 34.256C4.904 33.968 4.77867 33.7147 4.608 33.496C4.43733 33.2773 4.22133 33.1067 3.96 32.984C3.704 32.8613 3.40267 32.8 3.056 32.8C2.592 32.8 2.20533 32.9093 1.896 33.128C1.592 33.3413 1.36267 33.6293 1.208 33.992C1.05867 34.3493 0.984 34.744 0.984 35.176C0.984 35.6027 1.05867 35.9973 1.208 36.36C1.35733 36.7173 1.58667 37.0053 1.896 37.224C2.20533 37.4373 2.592 37.544 3.056 37.544ZM7.61356 38V32.344H11.3656V32.864H8.18956V35.144H10.9416V35.664H8.18956V38H7.61356ZM13.187 38V32.344H16.939V32.864H13.763V35.144H16.515V35.664H13.763V38H13.187ZM18.7604 38V32.344H19.3364V38H18.7604ZM23.8404 38.064C23.2591 38.064 22.7738 37.9413 22.3844 37.696C22.0004 37.4453 21.7151 37.1013 21.5284 36.664C21.3418 36.2267 21.2484 35.7307 21.2484 35.176C21.2484 34.6267 21.3444 34.1333 21.5364 33.696C21.7284 33.2587 22.0164 32.9147 22.4004 32.664C22.7898 32.408 23.2751 32.28 23.8564 32.28C24.2404 32.28 24.5764 32.3387 24.8644 32.456C25.1578 32.568 25.4004 32.7333 25.5924 32.952C25.7898 33.1653 25.9284 33.424 26.0084 33.728H25.4244C25.3178 33.4347 25.1258 33.208 24.8484 33.048C24.5764 32.8827 24.2458 32.8 23.8564 32.8C23.3818 32.8 22.9951 32.9093 22.6964 33.128C22.4031 33.3467 22.1844 33.6347 22.0404 33.992C21.9018 34.3493 21.8324 34.736 21.8324 35.152C21.8324 35.5893 21.9044 35.9893 22.0484 36.352C22.1924 36.7147 22.4138 37.0053 22.7124 37.224C23.0111 37.4373 23.3924 37.544 23.8564 37.544C24.1124 37.544 24.3498 37.5093 24.5684 37.44C24.7871 37.3653 24.9764 37.2587 25.1364 37.12C25.2964 36.9813 25.4111 36.8133 25.4804 36.616H26.1124C26.0218 36.92 25.8698 37.1813 25.6564 37.4C25.4431 37.6133 25.1818 37.7787 24.8724 37.896C24.5684 38.008 24.2244 38.064 23.8404 38.064ZM27.9776 38V32.344H28.5536V38H27.9776ZM30.1616 38L32.3056 32.344H33.0976L35.2416 38H34.6096L34.1456 36.752H31.2576L30.7936 38H30.1616ZM31.4496 36.232H33.9456L32.6976 32.88L31.4496 36.232ZM36.8511 38V32.344H37.4271V37.48H40.6031V38H36.8511ZM0.712 48V42.344H2.696C3.28267 42.344 3.77067 42.464 4.16 42.704C4.55467 42.9387 4.85067 43.2693 5.048 43.696C5.25067 44.1173 5.352 44.6107 5.352 45.176C5.352 45.736 5.25333 46.2293 5.056 46.656C4.85867 47.0773 4.56267 47.408 4.168 47.648C3.77333 47.8827 3.28267 48 2.696 48H0.712ZM1.288 47.48H2.648C3.12267 47.48 3.51467 47.3813 3.824 47.184C4.13867 46.9867 4.37333 46.7173 4.528 46.376C4.68267 46.0293 4.76 45.6293 4.76 45.176C4.76 44.7333 4.68533 44.3387 4.536 43.992C4.38667 43.6453 4.16 43.3707 3.856 43.168C3.552 42.9653 3.16267 42.864 2.688 42.864H1.288V47.48ZM7.26981 48V42.344H7.84581V48H7.26981ZM12.0778 48.064C11.7311 48.064 11.4031 48.0187 11.0938 47.928C10.7898 47.832 10.5258 47.68 10.3018 47.472C10.0778 47.2587 9.92048 46.9733 9.82981 46.616H10.4378C10.5285 46.856 10.6618 47.0453 10.8378 47.184C11.0138 47.3173 11.2111 47.4107 11.4298 47.464C11.6538 47.5173 11.8778 47.544 12.1018 47.544C12.3365 47.544 12.5578 47.512 12.7658 47.448C12.9738 47.3787 13.1445 47.2693 13.2778 47.12C13.4111 46.9653 13.4778 46.7707 13.4778 46.536C13.4778 46.344 13.4405 46.1893 13.3658 46.072C13.2965 45.9547 13.1978 45.8613 13.0698 45.792C12.9418 45.7173 12.7951 45.656 12.6298 45.608C12.4645 45.5547 12.2885 45.5093 12.1018 45.472C11.9205 45.4347 11.7391 45.392 11.5578 45.344C11.3818 45.296 11.2165 45.2373 11.0618 45.168C10.9285 45.1147 10.7978 45.0533 10.6698 44.984C10.5471 44.9093 10.4351 44.8213 10.3338 44.72C10.2378 44.6133 10.1605 44.488 10.1018 44.344C10.0431 44.1947 10.0138 44.024 10.0138 43.832C10.0138 43.6027 10.0511 43.4027 10.1258 43.232C10.2005 43.056 10.2991 42.9093 10.4218 42.792C10.5498 42.6693 10.6965 42.5707 10.8618 42.496C11.0325 42.4213 11.2138 42.368 11.4058 42.336C11.5978 42.2987 11.7925 42.28 11.9898 42.28C12.3045 42.28 12.6005 42.328 12.8778 42.424C13.1551 42.5147 13.3871 42.664 13.5738 42.872C13.7605 43.0747 13.8698 43.3493 13.9018 43.696H13.3258C13.2885 43.472 13.2031 43.296 13.0698 43.168C12.9365 43.0347 12.7738 42.9413 12.5818 42.888C12.3951 42.8293 12.1978 42.8 11.9898 42.8C11.8351 42.8 11.6751 42.816 11.5098 42.848C11.3498 42.8747 11.2005 42.9253 11.0618 43C10.9285 43.0747 10.8218 43.176 10.7418 43.304C10.6618 43.4267 10.6218 43.584 10.6218 43.776C10.6218 43.9467 10.6538 44.0933 10.7178 44.216C10.7871 44.3333 10.8805 44.432 10.9978 44.512C11.1151 44.5867 11.2431 44.648 11.3818 44.696C11.6271 44.7867 11.8885 44.8587 12.1658 44.912C12.4485 44.9653 12.7151 45.0347 12.9658 45.12C13.1258 45.1733 13.2725 45.24 13.4058 45.32C13.5445 45.3947 13.6618 45.4853 13.7578 45.592C13.8591 45.6987 13.9365 45.8213 13.9898 45.96C14.0431 46.0933 14.0698 46.2453 14.0698 46.416C14.0698 46.72 14.0165 46.9787 13.9098 47.192C13.8031 47.4 13.6565 47.568 13.4698 47.696C13.2831 47.824 13.0698 47.9173 12.8298 47.976C12.5898 48.0347 12.3391 48.064 12.0778 48.064ZM17.259 48V42.864H15.403V42.344H19.691V42.864H17.835V48H17.259ZM21.3339 48V42.344H23.4299C23.7392 42.344 24.0165 42.376 24.2619 42.44C24.5072 42.4987 24.7179 42.5973 24.8939 42.736C25.0699 42.8747 25.2032 43.056 25.2939 43.28C25.3899 43.4987 25.4379 43.768 25.4379 44.088C25.4379 44.392 25.3792 44.656 25.2619 44.88C25.1499 45.0987 24.9952 45.2773 24.7979 45.416C24.6059 45.5547 24.3819 45.6587 24.1259 45.728L25.3419 48H24.7019L23.5419 45.824H21.9099V48H21.3339ZM21.9099 45.304H23.2059C23.4245 45.304 23.6299 45.288 23.8219 45.256C24.0192 45.2187 24.1925 45.1573 24.3419 45.072C24.4965 44.9813 24.6165 44.856 24.7019 44.696C24.7925 44.5307 24.8405 44.32 24.8459 44.064C24.8459 43.76 24.7845 43.5227 24.6619 43.352C24.5445 43.176 24.3739 43.0507 24.1499 42.976C23.9259 42.9013 23.6619 42.864 23.3579 42.864H21.9099V45.304ZM27.3917 48V42.344H27.9677V48H27.3917ZM30.1837 48V42.344H32.1437C32.4104 42.344 32.6557 42.3653 32.8797 42.408C33.1037 42.4507 33.301 42.5227 33.4717 42.624C33.6424 42.7253 33.773 42.8667 33.8637 43.048C33.9597 43.2293 34.0077 43.4587 34.0077 43.736C34.0077 44.0507 33.9277 44.32 33.7677 44.544C33.613 44.768 33.3917 44.9307 33.1037 45.032C33.4824 45.0853 33.7757 45.232 33.9837 45.472C34.197 45.712 34.3037 46.0293 34.3037 46.424C34.3037 46.7333 34.2424 46.992 34.1197 47.2C33.997 47.4027 33.8317 47.5627 33.6237 47.68C33.421 47.7973 33.1864 47.88 32.9197 47.928C32.6584 47.976 32.3864 48 32.1037 48H30.1837ZM30.7597 47.48H32.0797C32.2557 47.48 32.4397 47.4693 32.6317 47.448C32.8237 47.4267 33.0024 47.384 33.1677 47.32C33.333 47.2507 33.4664 47.144 33.5677 47C33.669 46.856 33.7197 46.664 33.7197 46.424C33.7197 46.2107 33.6797 46.0373 33.5997 45.904C33.5197 45.7707 33.4104 45.6667 33.2717 45.592C33.1384 45.512 32.9864 45.4587 32.8157 45.432C32.6504 45.4 32.4797 45.384 32.3037 45.384H30.7597V47.48ZM30.7597 44.872H31.9197C32.117 44.872 32.3064 44.8533 32.4877 44.816C32.6744 44.7787 32.8397 44.7173 32.9837 44.632C33.1277 44.5467 33.2397 44.4347 33.3197 44.296C33.405 44.1573 33.4477 43.984 33.4477 43.776C33.453 43.5093 33.3944 43.312 33.2717 43.184C33.149 43.056 32.989 42.9707 32.7917 42.928C32.5944 42.8853 32.381 42.864 32.1517 42.864H30.7597V44.872ZM38.4101 48.064C37.8874 48.064 37.4607 47.9573 37.1301 47.744C36.8047 47.5253 36.5647 47.2293 36.4101 46.856C36.2607 46.4827 36.1861 46.056 36.1861 45.576V42.344H36.7621V45.56C36.7621 45.9227 36.8154 46.256 36.9221 46.56C37.0287 46.8587 37.2021 47.0987 37.4421 47.28C37.6874 47.456 38.0127 47.544 38.4181 47.544C38.8234 47.544 39.1434 47.456 39.3781 47.28C39.6181 47.0987 39.7887 46.8587 39.8901 46.56C39.9967 46.256 40.0501 45.9227 40.0501 45.56V42.344H40.6261V45.576C40.6261 46.0507 40.5487 46.4773 40.3941 46.856C40.2447 47.2293 40.0074 47.5253 39.6821 47.744C39.3567 47.9573 38.9327 48.064 38.4101 48.064ZM44.0793 48V42.864H42.2233V42.344H46.5113V42.864H44.6553V48H44.0793ZM50.4435 48.064C49.8568 48.064 49.3662 47.9387 48.9715 47.688C48.5822 47.4373 48.2862 47.0933 48.0835 46.656C47.8862 46.2187 47.7875 45.7253 47.7875 45.176C47.7875 44.6213 47.8862 44.1253 48.0835 43.688C48.2862 43.2507 48.5822 42.9067 48.9715 42.656C49.3662 42.4053 49.8568 42.28 50.4435 42.28C51.0302 42.28 51.5182 42.4053 51.9075 42.656C52.2968 42.9067 52.5902 43.2507 52.7875 43.688C52.9902 44.1253 53.0915 44.6213 53.0915 45.176C53.0915 45.7253 52.9902 46.2187 52.7875 46.656C52.5902 47.0933 52.2968 47.4373 51.9075 47.688C51.5182 47.9387 51.0302 48.064 50.4435 48.064ZM50.4435 47.544C50.9128 47.544 51.2995 47.4373 51.6035 47.224C51.9075 47.0107 52.1315 46.7253 52.2755 46.368C52.4248 46.0053 52.4995 45.608 52.4995 45.176C52.4995 44.8507 52.4568 44.544 52.3715 44.256C52.2915 43.968 52.1662 43.7147 51.9955 43.496C51.8248 43.2773 51.6088 43.1067 51.3475 42.984C51.0915 42.8613 50.7902 42.8 50.4435 42.8C49.9795 42.8 49.5928 42.9093 49.2835 43.128C48.9795 43.3413 48.7502 43.6293 48.5955 43.992C48.4462 44.3493 48.3715 44.744 48.3715 45.176C48.3715 45.6027 48.4462 45.9973 48.5955 46.36C48.7448 46.7173 48.9742 47.0053 49.2835 47.224C49.5928 47.4373 49.9795 47.544 50.4435 47.544ZM55.0011 48V42.344H57.0971C57.4064 42.344 57.6837 42.376 57.9291 42.44C58.1744 42.4987 58.3851 42.5973 58.5611 42.736C58.7371 42.8747 58.8704 43.056 58.9611 43.28C59.0571 43.4987 59.1051 43.768 59.1051 44.088C59.1051 44.392 59.0464 44.656 58.9291 44.88C58.8171 45.0987 58.6624 45.2773 58.4651 45.416C58.2731 45.5547 58.0491 45.6587 57.7931 45.728L59.0091 48H58.3691L57.2091 45.824H55.5771V48H55.0011ZM55.5771 45.304H56.8731C57.0917 45.304 57.2971 45.288 57.4891 45.256C57.6864 45.2187 57.8597 45.1573 58.0091 45.072C58.1637 44.9813 58.2837 44.856 58.3691 44.696C58.4597 44.5307 58.5077 44.32 58.5131 44.064C58.5131 43.76 58.4517 43.5227 58.3291 43.352C58.2117 43.176 58.0411 43.0507 57.8171 42.976C57.5931 42.9013 57.3291 42.864 57.0251 42.864H55.5771V45.304Z" fill="#1F2022"/>
</svg>
