<svg width="110" height="30" viewBox="0 0 110 30" fill="none" xmlns="http://www.w3.org/2000/svg">
<path d="M40.2395 1.39399L42.3982 4.00034V15.842H45.3697V1.39399H42.3982H40.2395Z" fill="#646464"/>
<path d="M0 1.39399L2.15327 4.00034V15.842H5.13018V1.39399H2.15327H0Z" fill="#646464"/>
<path d="M19.3304 10.7101L11.5086 1.39399H9.76447H7.6112L9.76447 4.00034V15.842H12.736V7.56523L19.6319 15.842H22.3396V1.39399H19.3304V10.7101Z" fill="#646464"/>
<path d="M106.991 10.7101L99.1692 1.39399H97.425H95.2717L97.425 4.00034V15.842H100.402V7.56523L107.292 15.842H110V1.39399H106.991V10.7101Z" fill="#646464"/>
<path d="M74.8206 7.2529H68.0109L68.0163 1.39399H65.0017V15.842H68.0109V9.9885H68.6246H74.8206V15.842H77.8298V1.39399H74.8206V7.2529Z" fill="#646464"/>
<path d="M58.3427 12.6161C57.6751 12.9523 56.9368 13.124 56.1894 13.1169C55.5686 13.12 54.953 13.0048 54.3752 12.7776C53.8131 12.5605 53.2951 12.243 52.8464 11.8407C52.3868 11.4317 52.0221 10.9273 51.7775 10.3628C51.533 9.79819 51.4146 9.18702 51.4306 8.57194C51.4136 7.95751 51.5315 7.3468 51.7761 6.78294C52.0207 6.21908 52.3861 5.7158 52.8464 5.30862C53.2949 4.90459 53.8129 4.5853 54.3752 4.36624C54.953 4.13907 55.5686 4.02393 56.1894 4.02698C56.9372 4.02172 57.6754 4.19527 58.3427 4.53317C58.9515 4.8441 59.4887 5.27879 59.9199 5.80942L62.3047 3.90312L62.0248 3.59617C61.2971 2.79141 60.4121 2.14444 59.4247 1.69526C58.484 1.2502 57.4629 1.00066 56.4231 0.961759C55.3832 0.922856 54.3463 1.09539 53.3751 1.46892C52.4038 1.84245 51.5184 2.40921 50.7725 3.13491C50.0265 3.86061 49.4355 4.73016 49.0351 5.69095C48.6444 6.60116 48.443 7.58137 48.443 8.57194C48.443 9.56251 48.6444 10.5427 49.0351 11.4529C49.4106 12.3693 49.9589 13.2048 50.6501 13.9139C51.7872 15.0177 53.2295 15.7547 54.7901 16.0293C56.3506 16.3039 57.9577 16.1035 59.4031 15.454C60.3906 15.0048 61.2755 14.3579 62.0032 13.5531L62.2831 13.2461L59.8984 11.3398C59.472 11.8667 58.9426 12.301 58.3427 12.6161V12.6161Z" fill="#646464"/>
<path d="M30.103 12.8156V10.2793V9.9885H35.583V7.2529H30.103V7.15597V4.42576V4.12958H30.2106H37.5748V1.39399H28.5957H27.0938H24.9405L27.0938 4.00034V15.842H28.5957V15.8474H30.356H38.3608V13.1118H30.103V12.8156Z" fill="#646464"/>
<path d="M85.4847 12.8156V10.2793V9.9885H90.9594V7.2529H85.4847V7.15597V4.42576V4.12958H85.5923H92.9511V1.39399H83.9774H82.4755H80.3222L82.4755 4.00034V15.842H83.9774V15.8474H85.7323H93.7425V13.1118H85.4847V12.8156Z" fill="#646464"/>
<path d="M6.23339 28.0112H2.79892L2.1637 29.6967H0.12886L3.35877 22.05H5.66815L8.89806 29.6967H6.86322L6.23339 28.0112ZM5.72737 26.6865L4.99526 24.7587C4.78822 24.3186 4.63286 23.856 4.5323 23.3801H4.5C4.39944 23.856 4.24409 24.3186 4.03705 24.7587L3.30494 26.6865H5.72737Z" fill="#646464"/>
<path d="M13.4042 22.0431V26.5665C13.4042 27.0449 13.5942 27.5038 13.9324 27.8421C14.2706 28.1804 14.7293 28.3705 15.2076 28.3705C15.6859 28.3705 16.1446 28.1804 16.4828 27.8421C16.821 27.5038 17.011 27.0449 17.011 26.5665V22.0431H18.9704V26.7065C18.9704 28.6343 17.6031 29.9052 15.2022 29.9052C12.8013 29.9052 11.434 28.6343 11.434 26.6742V22.0215L13.4042 22.0431Z" fill="#646464"/>
<path d="M22.1461 25.8916C22.1461 23.4684 23.8472 21.8313 26.4526 21.8313C28.6059 21.8313 30.0917 22.9083 30.4254 24.6315L28.4229 24.987C28.3621 24.5112 28.1198 24.0773 27.7465 23.7762C27.3733 23.4751 26.8981 23.33 26.4203 23.3714C25.0207 23.3714 24.1702 24.33 24.1702 25.8701C24.1702 27.4102 25.0315 28.358 26.4526 28.358C26.921 28.3942 27.3859 28.2542 27.7564 27.9653C28.1268 27.6764 28.3761 27.2595 28.4552 26.7963L30.4362 27.2271C29.9625 28.8965 28.5521 29.9196 26.4096 29.9196C23.7288 29.9089 22.1461 28.3257 22.1461 25.8916Z" fill="#646464"/>
<path d="M40.0186 23.5839H37.3916V29.6959H35.4322V23.5839H32.8052V22.0438H40.0186V23.5839Z" fill="#646464"/>
<path d="M43.1407 29.6967V22.05H45.0894V29.6967H43.1407Z" fill="#646464"/>
<path d="M48.395 25.8701C48.395 23.4038 50.1068 21.8313 52.7338 21.8313C55.3608 21.8313 57.0727 23.4038 57.0727 25.8701C57.0727 28.3364 55.3716 29.9089 52.7338 29.9089C50.0961 29.9089 48.395 28.3257 48.395 25.8701ZM55.0378 25.8701C55.0378 24.3084 54.155 23.3284 52.7338 23.3284C51.3127 23.3284 50.4406 24.3084 50.4406 25.8701C50.4406 27.4318 51.3234 28.4118 52.7338 28.4118C54.1442 28.4118 55.0378 27.4318 55.0378 25.8701Z" fill="#646464"/>
<path d="M60.389 22.0437H62.5423L65.6537 26.4056C65.8616 26.7007 66.0418 27.0143 66.1921 27.3426H66.2244C66.2244 27.0195 66.2244 26.6856 66.2244 26.3194V22.0437H68.0116V29.6958H65.9606L62.7307 25.2909C62.5255 25.0016 62.3454 24.6954 62.1924 24.3754V24.3754C62.1924 24.7093 62.1924 25.0432 62.1924 25.4093V29.7174H60.4051L60.389 22.0437Z" fill="#646464"/>
<path d="M78.2176 28.2805V29.6967H71.8816V22.05H78.1477V23.4609H73.8411V25.1195H77.9754V26.4657H73.8411V28.2751L78.2176 28.2805Z" fill="#646464"/>
<path d="M88.1872 28.2806V29.6969H81.8404V22.0501H88.1118V23.461H83.8053V25.1196H87.9396V26.4659H83.8053V28.2752L88.1872 28.2806Z" fill="#646464"/>
<path d="M95.3365 26.8481H93.7646V29.6967H91.7998V22.05H95.9341C98.0873 22.05 98.8733 23.127 98.8733 24.4302C98.8839 24.9182 98.7306 25.3957 98.4378 25.7863C98.145 26.1768 97.7297 26.4578 97.2584 26.5842L99.0886 29.686H96.9354L95.3365 26.8481ZM93.7646 25.5557H95.5303C96.4778 25.5557 96.8438 25.071 96.8438 24.4463C96.8438 23.8217 96.4885 23.3693 95.5303 23.3693H93.7646V25.5557Z" fill="#646464"/>
<path d="M101.398 28.0814L102.83 27.0798C103.103 27.5264 103.491 27.8911 103.953 28.1357C104.415 28.3802 104.935 28.4954 105.457 28.4692C106.459 28.4692 107.072 28.1891 107.072 27.586C107.072 26.9829 106.739 26.8537 105.899 26.7137L104.327 26.4875C102.766 26.229 101.937 25.5182 101.937 24.1827C101.937 22.7395 103.229 21.8564 105.382 21.8564C106.997 21.8564 108.278 22.3625 108.999 23.4072L107.729 24.4843C107.465 24.0757 107.097 23.7447 106.663 23.5252C106.228 23.3057 105.744 23.2055 105.258 23.2349C104.332 23.2349 103.794 23.5257 103.794 24.0319C103.794 24.5381 104.106 24.7427 104.989 24.8827L106.518 25.1197C108.197 25.3782 108.983 26.0136 108.983 27.3706C108.983 28.9215 107.67 29.9016 105.355 29.9016C103.455 29.907 102.028 29.1854 101.398 28.0814Z" fill="#646464"/>
</svg>
