<svg width="200" height="56" viewBox="0 0 200 56" fill="none" xmlns="http://www.w3.org/2000/svg">
<g clip-path="url(#clip0_2893_449)">
<path fill-rule="evenodd" clip-rule="evenodd" d="M0 41.9766V55.8414H1.31598V48.8693L1.65042 49.2442L8.34666 55.8774H10.2079L2.65377 48.5665L9.44452 42.0126H7.82317L1.854 47.9176L1.37415 48.4079V42.0126L0 41.9766ZM10.2879 48.927C10.2753 49.9589 10.44 50.9854 10.775 51.9624C11.0623 52.7876 11.5205 53.544 12.1201 54.1831C12.6817 54.7742 13.3665 55.2367 14.1268 55.5386C15.7289 56.1541 17.5051 56.1541 19.1072 55.5386C19.8706 55.2387 20.5582 54.7759 21.1211 54.1831C21.7207 53.544 22.1789 52.7876 22.4662 51.9624C22.8012 50.9854 22.966 49.9589 22.9533 48.927C22.9524 48.1991 22.8695 47.4736 22.7061 46.764C22.5575 46.0866 22.3127 45.4337 21.9791 44.8245C21.6556 44.2318 21.2299 43.6998 20.7212 43.2527C20.2021 42.7959 19.6 42.4411 18.9472 42.2073C17.4561 41.6981 15.836 41.6981 14.3449 42.2073C13.6936 42.4444 13.0922 42.7988 12.5709 43.2527C12.0661 43.7034 11.641 44.2347 11.3131 44.8245C10.9823 45.4349 10.7376 46.0875 10.586 46.764C10.4192 47.473 10.3362 48.1989 10.3388 48.927H10.2879ZM11.742 48.927C11.7324 48.1802 11.8253 47.4355 12.0183 46.7135C12.1665 46.1157 12.4121 45.5458 12.7454 45.0264C13.044 44.5755 13.4177 44.1781 13.8505 43.8512C14.2538 43.5401 14.7057 43.2965 15.1883 43.1302C15.6589 42.9833 16.1491 42.908 16.6424 42.9067C17.1356 42.9092 17.6257 42.9845 18.0966 43.1302C18.5784 43.2982 19.0301 43.5416 19.4343 43.8512C19.8666 44.1764 20.2381 44.5742 20.5322 45.0264C20.8654 45.5459 21.1109 46.1157 21.2593 46.7135C21.6277 48.169 21.6277 49.6922 21.2593 51.1477C21.1078 51.7399 20.8624 52.3045 20.5322 52.8204C20.2378 53.2662 19.8661 53.6567 19.4343 53.974C19.0308 54.2742 18.5783 54.5034 18.0966 54.6517C17.6266 54.801 17.1359 54.8764 16.6424 54.8752C16.1488 54.8776 15.658 54.8021 15.1883 54.6517C14.7059 54.5051 14.2531 54.2757 13.8505 53.974C13.4182 53.6551 13.0444 53.2649 12.7454 52.8204C12.4152 52.3045 12.1698 51.7399 12.0183 51.1477C11.8254 50.4233 11.7324 49.6762 11.742 48.927ZM26.0869 41.9766V55.8414H27.4029V44.9687L27.323 43.3609H27.3811L28.1082 44.8462L34.819 55.8414H36.5203V41.9766H35.197V52.8492L35.2407 54.4571H35.197L34.579 53.1881L27.7665 41.9766H26.0869ZM39.494 55.3583C40.011 55.5626 40.5466 55.7172 41.0935 55.8198C41.6401 55.9215 42.1951 55.9722 42.7512 55.9712C43.4737 55.9852 44.1935 55.8804 44.8815 55.6611C45.4201 55.494 45.9161 55.2136 46.3356 54.8392C46.6926 54.5144 46.9731 54.1156 47.1572 53.6712C47.3315 53.2455 47.418 52.7895 47.4117 52.3301C47.4253 51.838 47.3413 51.3481 47.1645 50.8881C46.9984 50.4868 46.7509 50.1236 46.4374 49.8211C46.1068 49.492 45.7411 49.1994 45.3468 48.9486C44.9178 48.6819 44.438 48.4079 43.8927 48.1195L42.7512 47.5066C42.4264 47.3287 42.1175 47.1237 41.8278 46.8938C41.5736 46.6967 41.3611 46.4516 41.2026 46.1728C41.0491 45.8816 40.9716 45.5568 40.9772 45.2283C40.974 45.0396 40.9911 44.8511 41.0281 44.6659C41.0739 44.4522 41.1498 44.2459 41.2534 44.0531C41.3752 43.8324 41.5409 43.6386 41.7406 43.4835C41.9908 43.2914 42.2777 43.1515 42.584 43.0725C43.0029 42.9573 43.4362 42.9015 43.8709 42.9067C44.3592 42.9062 44.8464 42.9545 45.325 43.0509C45.8246 43.1505 46.3121 43.3028 46.7791 43.5051L46.9609 42.2794C46.4517 42.1066 45.9288 41.9764 45.3977 41.8901C44.9165 41.8169 44.4304 41.7808 43.9436 41.7819C43.343 41.7719 42.7439 41.8422 42.1623 41.991C41.7196 42.1036 41.301 42.2941 40.9263 42.5534C40.333 42.9675 39.9139 43.5833 39.7484 44.2838C39.6677 44.5921 39.6286 44.9097 39.6321 45.2283C39.6195 45.7252 39.7215 46.2184 39.9302 46.6703C40.1188 47.0593 40.3804 47.4092 40.7009 47.7013C41.0175 47.9918 41.3663 48.2457 41.7406 48.4584C42.1114 48.6747 42.4676 48.8765 42.8457 49.0568L44.009 49.6841C44.3706 49.8919 44.7114 50.1333 45.0269 50.4051C45.3279 50.6482 45.5754 50.95 45.754 51.2919C45.9445 51.6568 46.0396 52.0634 46.0302 52.4743C46.0401 52.7805 45.9797 53.0849 45.8538 53.3647C45.7279 53.6444 45.5396 53.8922 45.3032 54.0894C45.0724 54.2788 44.8153 54.4342 44.5398 54.5508C44.2611 54.6665 43.9712 54.7535 43.6746 54.8104C43.3921 54.8666 43.1048 54.8956 42.8166 54.8969C42.4798 54.8933 42.144 54.8595 41.8133 54.7959C41.4467 54.7275 41.0848 54.636 40.73 54.522C40.3764 54.4124 40.0313 54.2775 39.6975 54.1182L39.5594 55.4088L39.494 55.3583ZM48.2841 41.9477V43.1013H52.4793V55.8414H53.7953V43.1013H57.9904V41.9766L48.2841 41.9477ZM62.7308 41.9477H64.4467L70.0014 55.8126H68.5473L67.006 51.9912H60.0916L58.5575 55.8126H57.1034L62.6581 41.9477H62.7308ZM63.6106 43.2311H63.567L63.0798 44.5433L60.5424 50.8593H66.577L64.0686 44.5433L63.6106 43.2311ZM72.3353 41.9477V55.8126H73.6513V44.9687L73.5713 43.3609H73.6295L74.3565 44.8462L81.0673 55.8414H82.7686V41.9766H81.4454V52.8492L81.489 54.4571H81.4454L80.8274 53.1881L73.9857 41.9766L72.3353 41.9477ZM85.0807 41.9477V43.1013H89.254V55.8414H90.57V43.1013H94.7651V41.9766L85.0807 41.9477ZM97.0845 41.9477V55.8126H98.4077V41.9766L97.0845 41.9477ZM102.399 41.9477V55.8126H103.715V44.9687L103.635 43.3609H103.701L104.428 44.8462L111.146 55.8414H112.84V41.9766H111.524V52.8492L111.56 54.4571H111.524L110.906 53.1881L104.093 41.9766L102.399 41.9477ZM131.111 54.2047C130.746 54.3482 130.372 54.4663 129.991 54.558C129.592 54.6587 129.186 54.7334 128.777 54.7815C128.357 54.8331 127.935 54.8595 127.512 54.8608C126.783 54.8602 126.061 54.7257 125.382 54.4643C124.718 54.2005 124.117 53.8027 123.616 53.2964C123.115 52.79 122.726 52.1859 122.473 51.5226C122.179 50.7587 122.031 49.9468 122.037 49.1289C122.031 48.3012 122.161 47.478 122.423 46.6919C122.661 45.9721 123.036 45.304 123.528 44.7236C124.01 44.1606 124.614 43.7122 125.294 43.4114C126.038 43.0839 126.844 42.9192 127.657 42.9283H128.326C128.705 42.9582 129.081 43.0111 129.453 43.0869C129.949 43.1843 130.436 43.3242 130.907 43.5051L131.024 42.3154C130.699 42.1915 130.366 42.0879 130.028 42.0054C129.68 41.9274 129.328 41.872 128.973 41.8396C128.587 41.7977 128.199 41.7785 127.81 41.7819C126.892 41.7666 125.978 41.9031 125.105 42.1857C124.367 42.4249 123.681 42.8017 123.084 43.296C122.528 43.7518 122.06 44.3039 121.703 44.9255C121.343 45.5475 121.076 46.2177 120.91 46.9154C120.742 47.6244 120.657 48.3501 120.656 49.0784C120.655 49.774 120.743 50.4669 120.918 51.1405C121.097 51.7996 121.369 52.4306 121.725 53.0151C122.093 53.5997 122.56 54.1168 123.106 54.5436C123.696 54.9996 124.363 55.3487 125.076 55.5746C125.916 55.8346 126.792 55.9611 127.672 55.9495C128.134 55.9502 128.595 55.9237 129.053 55.8702C129.475 55.8125 129.868 55.7477 130.224 55.6683C130.58 55.589 130.893 55.5025 131.169 55.416V54.1687L131.111 54.2047ZM133.707 41.9477V55.8126H135.023V49.1938H142.293V55.8126H143.616V41.9766H142.257V48.0979H134.986V41.9766L133.707 41.9477ZM151.461 41.9477L145.914 55.8126H147.332L148.866 51.9912H155.78L157.322 55.8126H158.739L153.185 41.9477H151.461ZM152.341 43.2311L152.806 44.5433L155.344 50.8593H149.309L151.781 44.5433L152.239 43.2311H152.341ZM157.431 41.9477H158.965L162.862 48.0907L163.342 48.8982L163.96 47.9464L167.857 41.9477H169.471L163.981 50.0301V55.7981H162.658V50.0301L157.431 41.9477ZM171.674 41.9477V55.8126H172.99V48.8693L173.331 49.2442L180.02 55.8774H181.882L174.32 48.5305L181.111 41.9766H179.41L173.44 47.8816L172.961 48.3718V41.9766L171.674 41.9477ZM184.295 41.9477V55.8126H185.619V41.9766L184.295 41.9477ZM189.61 41.9477V55.8126H190.926V44.9687L190.846 43.3609H190.912L191.639 44.8462L198.313 55.8414H200.007V41.9766H198.677V52.8492L198.713 54.4571H198.677L198.059 53.1881L191.246 41.9766L189.61 41.9477Z" fill="#1F2022"/>
<path fill-rule="evenodd" clip-rule="evenodd" d="M92.1987 26.3525L90.6355 27.9027H109.394L107.83 26.3525L106.267 24.8024H100.015L75.0037 0L100.015 18.6018L125.025 0L100.015 24.8024H93.7618L92.1987 26.3525Z" fill="#1F2022"/>
</g>
<defs>
<clipPath id="clip0_2893_449">
<rect width="200" height="56" fill="white"/>
</clipPath>
</defs>
</svg>
