<svg width="60" height="50" fill="none" xmlns="http://www.w3.org/2000/svg"><path d="M25 0H0v27h25v-4.666H5.316V4.565H25V0z" fill="#2C2D2E"/><path d="M11 17l8-3.45L11.165 10 11 17z" fill="#960028"/><path d="M3.056 38.064c-.587 0-1.077-.125-1.472-.376a2.397 2.397 0 01-.888-1.032 3.56 3.56 0 01-.296-1.48c0-.555.099-1.05.296-1.488.203-.437.499-.781.888-1.032.395-.25.885-.376 1.472-.376s1.075.125 1.464.376c.39.25.683.595.88 1.032a3.5 3.5 0 01.304 1.488 3.48 3.48 0 01-.304 1.48c-.197.437-.49.781-.88 1.032-.39.25-.877.376-1.464.376zm0-.52c.47 0 .856-.107 1.16-.32.304-.213.528-.499.672-.856.15-.363.224-.76.224-1.192 0-.325-.043-.632-.128-.92a2.16 2.16 0 00-.376-.76 1.753 1.753 0 00-.648-.512 2.071 2.071 0 00-.904-.184c-.464 0-.85.11-1.16.328a1.976 1.976 0 00-.688.864c-.15.357-.224.752-.224 1.184 0 .427.075.821.224 1.184.15.357.379.645.688.864.31.213.696.32 1.16.32zM7.614 38v-5.656h3.752v.52H8.19v2.28h2.752v.52H8.19V38h-.576zm5.573 0v-5.656h3.752v.52h-3.176v2.28h2.752v.52h-2.752V38h-.576zm5.573 0v-5.656h.576V38h-.576zm5.08.064c-.58 0-1.066-.123-1.456-.368a2.262 2.262 0 01-.856-1.032 3.759 3.759 0 01-.28-1.488c0-.55.096-1.043.288-1.48.192-.437.48-.781.864-1.032.39-.256.875-.384 1.456-.384.384 0 .72.059 1.008.176a1.8 1.8 0 01.728.496c.198.213.336.472.416.776h-.584a1.263 1.263 0 00-.576-.68c-.272-.165-.602-.248-.992-.248-.474 0-.86.11-1.16.328a1.973 1.973 0 00-.656.864 3.18 3.18 0 00-.208 1.16c0 .437.072.837.216 1.2.144.363.366.653.664.872.3.213.68.32 1.144.32.256 0 .494-.035.712-.104a1.69 1.69 0 00.568-.32 1.17 1.17 0 00.344-.504h.632c-.09.304-.242.565-.456.784a2.189 2.189 0 01-.784.496 2.97 2.97 0 01-1.032.168zM27.978 38v-5.656h.576V38h-.576zm2.184 0l2.144-5.656h.792L35.242 38h-.632l-.464-1.248h-2.888L30.794 38h-.632zm1.288-1.768h2.496l-1.248-3.352-1.248 3.352zM36.85 38v-5.656h.576v5.136h3.176V38H36.85zM.712 48v-5.656h1.984c.587 0 1.075.12 1.464.36a2.2 2.2 0 01.888.992c.203.421.304.915.304 1.48 0 .56-.099 1.053-.296 1.48a2.255 2.255 0 01-.888.992c-.395.235-.885.352-1.472.352H.712zm.576-.52h1.36c.475 0 .867-.099 1.176-.296.315-.197.55-.467.704-.808a2.92 2.92 0 00.232-1.2c0-.443-.075-.837-.224-1.184a1.843 1.843 0 00-.68-.824c-.304-.203-.693-.304-1.168-.304h-1.4v4.616zM7.27 48v-5.656h.576V48H7.27zm4.808.064a3.48 3.48 0 01-.984-.136 2.058 2.058 0 01-.792-.456c-.224-.213-.382-.499-.472-.856h.608c.09.24.224.43.4.568.176.133.373.227.592.28.224.053.448.08.672.08.234 0 .456-.032.664-.096.208-.07.379-.179.512-.328.133-.155.2-.35.2-.584a.853.853 0 00-.112-.464.75.75 0 00-.296-.28 1.947 1.947 0 00-.44-.184 4.758 4.758 0 00-.528-.136 9.997 9.997 0 01-.544-.128 3.399 3.399 0 01-.496-.176 3.738 3.738 0 01-.392-.184 1.79 1.79 0 01-.336-.264 1.277 1.277 0 01-.232-.376 1.392 1.392 0 01-.088-.512c0-.23.037-.43.112-.6a1.3 1.3 0 01.296-.44c.128-.123.274-.221.44-.296a2.29 2.29 0 01.544-.16c.192-.037.386-.056.584-.056.315 0 .61.048.888.144.277.09.51.24.696.448.187.203.296.477.328.824h-.576a.916.916 0 00-.256-.528 1.088 1.088 0 00-.488-.28 1.962 1.962 0 00-.592-.088 2.52 2.52 0 00-.48.048 1.43 1.43 0 00-.448.152.876.876 0 00-.32.304.85.85 0 00-.12.472c0 .17.032.317.096.44.07.117.162.216.28.296.117.075.245.136.384.184.245.09.507.163.784.216.282.053.55.123.8.208.16.053.307.12.44.2.138.075.256.165.352.272.101.107.179.23.232.368.053.133.08.285.08.456 0 .304-.053.563-.16.776a1.343 1.343 0 01-.44.504 1.94 1.94 0 01-.64.28c-.24.059-.49.088-.752.088zM17.259 48v-5.136h-1.856v-.52h4.288v.52h-1.856V48h-.576zm4.075 0v-5.656h2.096c.31 0 .587.032.832.096.245.059.456.157.632.296.176.139.31.32.4.544.096.219.144.488.144.808 0 .304-.059.568-.176.792a1.456 1.456 0 01-.464.536 2.05 2.05 0 01-.672.312L25.342 48h-.64l-1.16-2.176H21.91V48h-.576zm.576-2.696h1.296c.218 0 .424-.016.616-.048.197-.037.37-.099.52-.184a.94.94 0 00.36-.376c.09-.165.138-.376.144-.632 0-.304-.061-.541-.184-.712a.956.956 0 00-.512-.376 2.51 2.51 0 00-.792-.112H21.91v2.44zM27.392 48v-5.656h.576V48h-.576zm2.792 0v-5.656h1.96c.266 0 .512.021.736.064.224.043.421.115.592.216.17.101.301.243.392.424.096.181.144.41.144.688 0 .315-.08.584-.24.808a1.305 1.305 0 01-.664.488c.378.053.672.2.88.44.213.24.32.557.32.952 0 .31-.062.568-.184.776a1.338 1.338 0 01-.496.48c-.203.117-.438.2-.704.248a4.51 4.51 0 01-.816.072h-1.92zm.576-.52h1.32c.176 0 .36-.01.552-.032.192-.021.37-.064.536-.128a.908.908 0 00.4-.32c.101-.144.152-.336.152-.576a1 1 0 00-.12-.52.84.84 0 00-.328-.312 1.253 1.253 0 00-.456-.16 2.688 2.688 0 00-.512-.048H30.76v2.096zm0-2.608h1.16c.197 0 .386-.019.568-.056.186-.037.352-.099.496-.184a.922.922 0 00.336-.336.976.976 0 00.128-.52c.005-.267-.054-.464-.176-.592a.913.913 0 00-.48-.256 3.025 3.025 0 00-.64-.064H30.76v2.008zm7.65 3.192c-.523 0-.95-.107-1.28-.32a1.937 1.937 0 01-.72-.888 3.41 3.41 0 01-.224-1.28v-3.232h.576v3.216c0 .363.053.696.16 1 .107.299.28.539.52.72.245.176.57.264.976.264.405 0 .725-.088.96-.264.24-.181.41-.421.512-.72.107-.304.16-.637.16-1v-3.216h.576v3.232c0 .475-.077.901-.232 1.28a1.89 1.89 0 01-.712.888c-.325.213-.75.32-1.272.32zM44.08 48v-5.136h-1.857v-.52h4.288v.52h-1.856V48h-.576zm6.364.064c-.587 0-1.078-.125-1.473-.376a2.397 2.397 0 01-.887-1.032 3.56 3.56 0 01-.297-1.48c0-.555.1-1.05.297-1.488.202-.437.498-.781.887-1.032.395-.25.886-.376 1.473-.376.586 0 1.074.125 1.463.376.39.25.683.595.88 1.032.203.437.305.933.305 1.488a3.48 3.48 0 01-.304 1.48 2.355 2.355 0 01-.88 1.032c-.39.25-.878.376-1.465.376zm0-.52c.469 0 .855-.107 1.16-.32.303-.213.528-.499.672-.856.149-.363.223-.76.223-1.192 0-.325-.042-.632-.128-.92a2.16 2.16 0 00-.376-.76 1.753 1.753 0 00-.648-.512 2.071 2.071 0 00-.904-.184c-.463 0-.85.11-1.16.328a1.976 1.976 0 00-.688.864 3.046 3.046 0 00-.224 1.184c0 .427.075.821.224 1.184.15.357.38.645.688.864.31.213.697.32 1.16.32zM55 48v-5.656h2.096c.31 0 .587.032.832.096.245.059.456.157.632.296.176.139.31.32.4.544.096.219.144.488.144.808 0 .304-.059.568-.176.792a1.456 1.456 0 01-.464.536 2.05 2.05 0 01-.672.312L59.01 48h-.64l-1.16-2.176h-1.632V48h-.576zm.576-2.696h1.296c.219 0 .424-.016.616-.048.197-.037.37-.099.52-.184a.94.94 0 00.36-.376 1.37 1.37 0 00.144-.632c0-.304-.061-.541-.184-.712a.956.956 0 00-.512-.376 2.51 2.51 0 00-.792-.112h-1.448v2.44z" fill="#1F2022"/></svg>