<svg width="200" height="40" fill="none" xmlns="http://www.w3.org/2000/svg"><path d="M7.348 36.112c-1.027 0-1.885-.22-2.576-.658a4.194 4.194 0 01-1.554-1.806c-.345-.765-.518-1.629-.518-2.59 0-.97.173-1.839.518-2.604a4.194 4.194 0 011.554-1.806c.69-.439 1.55-.658 2.576-.658 1.027 0 1.88.22 2.562.658a4.103 4.103 0 011.54 1.806c.355.765.532 1.633.532 2.604 0 .961-.177 1.825-.532 2.59a4.103 4.103 0 01-1.54 1.806c-.681.439-1.535.658-2.562.658zm0-.91c.821 0 1.498-.187 2.03-.56a3.287 3.287 0 001.176-1.498c.261-.635.392-1.33.392-2.086 0-.57-.075-1.106-.224-1.61a3.78 3.78 0 00-.658-1.33 3.068 3.068 0 00-1.134-.896c-.448-.215-.975-.322-1.582-.322-.812 0-1.489.191-2.03.574a3.459 3.459 0 00-1.204 1.512 5.322 5.322 0 00-.392 2.072c0 .747.13 1.437.392 2.072.261.625.663 1.13 1.204 1.512.541.373 1.218.56 2.03.56zm7.976.798v-9.898h6.566v.91h-5.558v3.99h4.816v.91h-4.816V36h-1.008zm9.753 0v-9.898h6.566v.91h-5.558v3.99h4.816v.91h-4.816V36h-1.008zm9.754 0v-9.898h1.008V36H34.83zm8.89.112c-1.018 0-1.867-.215-2.548-.644a3.957 3.957 0 01-1.498-1.806c-.327-.765-.49-1.633-.49-2.604 0-.961.168-1.825.504-2.59a4.045 4.045 0 011.512-1.806c.681-.448 1.53-.672 2.548-.672.672 0 1.26.103 1.764.308.513.196.938.485 1.274.868.345.373.588.826.728 1.358h-1.022a2.212 2.212 0 00-1.008-1.19c-.476-.29-1.055-.434-1.736-.434-.83 0-1.508.191-2.03.574a3.451 3.451 0 00-1.148 1.512 5.562 5.562 0 00-.364 2.03c0 .765.126 1.465.378 2.1a3.4 3.4 0 001.162 1.526c.522.373 1.19.56 2.002.56.448 0 .863-.06 1.246-.182a2.96 2.96 0 00.994-.56c.28-.243.48-.537.602-.882h1.106c-.159.532-.425.99-.798 1.372-.374.373-.83.663-1.372.868-.532.196-1.134.294-1.806.294zM50.96 36v-9.898h1.008V36H50.96zm3.822 0l3.752-9.898h1.386L63.673 36h-1.106l-.812-2.184H56.7L55.889 36h-1.106zm2.254-3.094h4.368L59.22 27.04l-2.184 5.866zM66.489 36v-9.898h1.008v8.988h5.558V36H66.49zm14.585 0v-9.898h3.472c1.027 0 1.881.21 2.563.63.69.41 1.208.99 1.553 1.736.355.737.532 1.6.532 2.59 0 .98-.172 1.843-.517 2.59a3.946 3.946 0 01-1.555 1.736c-.69.41-1.549.616-2.576.616h-3.472zm1.008-.91h2.38c.831 0 1.517-.173 2.058-.518a3.185 3.185 0 001.233-1.414c.27-.607.406-1.307.406-2.1 0-.775-.131-1.465-.393-2.072a3.225 3.225 0 00-1.19-1.442c-.531-.355-1.213-.532-2.043-.532h-2.45v8.078zm10.469.91v-9.898h1.008V36H92.55zm8.414.112c-.607 0-1.181-.08-1.722-.238a3.601 3.601 0 01-1.386-.798c-.392-.373-.668-.873-.826-1.498h1.064c.158.42.392.751.7.994a2.79 2.79 0 001.036.49c.392.093.784.14 1.176.14.41 0 .798-.056 1.162-.168.364-.121.662-.313.896-.574.233-.27.35-.611.35-1.022 0-.336-.066-.607-.196-.812a1.317 1.317 0 00-.518-.49 3.414 3.414 0 00-.77-.322 8.41 8.41 0 00-.924-.238 17.3 17.3 0 01-.952-.224 5.935 5.935 0 01-.868-.308 6.54 6.54 0 01-.686-.322 3.13 3.13 0 01-.588-.462 2.233 2.233 0 01-.406-.658 2.436 2.436 0 01-.154-.896c0-.401.065-.751.196-1.05.13-.308.303-.565.518-.77.224-.215.48-.387.77-.518.298-.13.616-.224.952-.28a5.345 5.345 0 011.022-.098c.55 0 1.068.084 1.554.252.485.159.891.42 1.218.784.326.355.518.835.574 1.442h-1.008c-.066-.392-.215-.7-.448-.924a1.909 1.909 0 00-.854-.49 3.436 3.436 0 00-1.036-.154c-.271 0-.551.028-.84.084-.28.047-.542.135-.784.266-.234.13-.42.308-.56.532-.14.215-.21.49-.21.826 0 .299.056.555.168.77.121.205.284.378.49.518.205.13.429.238.672.322.429.159.886.285 1.372.378.494.093.961.215 1.4.364.28.093.536.21.77.35.242.13.448.29.616.476.177.187.312.401.406.644.093.233.14.5.14.798 0 .532-.094.985-.28 1.358a2.359 2.359 0 01-.77.882 3.39 3.39 0 01-1.12.49c-.42.103-.859.154-1.316.154zm9.067-.112v-8.988h-3.248v-.91h7.504v.91h-3.248V36h-1.008zm7.131 0v-9.898h3.668c.541 0 1.026.056 1.456.168.429.103.798.275 1.106.518.308.243.541.56.7.952.168.383.252.854.252 1.414 0 .532-.103.994-.308 1.386a2.55 2.55 0 01-.812.938 3.59 3.59 0 01-1.176.546L124.177 36h-1.12l-2.03-3.808h-2.856V36h-1.008zm1.008-4.718h2.268c.382 0 .742-.028 1.078-.084.345-.065.648-.173.91-.322.27-.159.48-.378.63-.658.158-.29.242-.658.252-1.106 0-.532-.108-.947-.322-1.246-.206-.308-.504-.527-.896-.658-.392-.13-.854-.196-1.386-.196h-2.534v4.27zM127.764 36v-9.898h1.008V36h-1.008zm4.886 0v-9.898h3.43c.467 0 .896.037 1.288.112.392.075.737.2 1.036.378.299.177.527.425.686.742.168.317.252.719.252 1.204 0 .55-.14 1.022-.42 1.414-.271.392-.658.677-1.162.854.663.093 1.176.35 1.54.77.373.42.56.975.56 1.666 0 .541-.107.994-.322 1.358a2.345 2.345 0 01-.868.84c-.355.205-.765.35-1.232.434a7.887 7.887 0 01-1.428.126h-3.36zm1.008-.91h2.31c.308 0 .63-.019.966-.056a3.71 3.71 0 00.938-.224 1.59 1.59 0 00.7-.56c.177-.252.266-.588.266-1.008 0-.373-.07-.677-.21-.91a1.467 1.467 0 00-.574-.546 2.188 2.188 0 00-.798-.28 4.703 4.703 0 00-.896-.084h-2.702v3.668zm0-4.564h2.03c.345 0 .677-.033.994-.098.327-.065.616-.173.868-.322.252-.15.448-.345.588-.588.149-.243.224-.546.224-.91.009-.467-.093-.812-.308-1.036a1.6 1.6 0 00-.84-.448 5.295 5.295 0 00-1.12-.112h-2.436v3.514zm13.388 5.586c-.915 0-1.661-.187-2.24-.56a3.395 3.395 0 01-1.26-1.554c-.261-.653-.392-1.4-.392-2.24v-5.656h1.008v5.628c0 .635.093 1.218.28 1.75.187.523.49.943.91 1.26.429.308.999.462 1.708.462s1.269-.154 1.68-.462a2.57 2.57 0 00.896-1.26c.187-.532.28-1.115.28-1.75v-5.628h1.008v5.656c0 .83-.135 1.577-.406 2.24a3.306 3.306 0 01-1.246 1.554c-.569.373-1.311.56-2.226.56zm9.921-.112v-8.988h-3.248v-.91h7.504v.91h-3.248V36h-1.008zm11.138.112c-1.027 0-1.886-.22-2.576-.658a4.185 4.185 0 01-1.554-1.806c-.346-.765-.518-1.629-.518-2.59 0-.97.172-1.839.518-2.604a4.185 4.185 0 011.554-1.806c.69-.439 1.549-.658 2.576-.658 1.026 0 1.88.22 2.562.658a4.11 4.11 0 011.54 1.806c.354.765.532 1.633.532 2.604 0 .961-.178 1.825-.532 2.59a4.11 4.11 0 01-1.54 1.806c-.682.439-1.536.658-2.562.658zm0-.91c.821 0 1.498-.187 2.03-.56a3.287 3.287 0 001.176-1.498c.261-.635.392-1.33.392-2.086 0-.57-.075-1.106-.224-1.61a3.791 3.791 0 00-.658-1.33 3.073 3.073 0 00-1.134-.896c-.448-.215-.976-.322-1.582-.322-.812 0-1.489.191-2.03.574a3.454 3.454 0 00-1.204 1.512c-.262.625-.392 1.316-.392 2.072 0 .747.13 1.437.392 2.072.261.625.662 1.13 1.204 1.512.541.373 1.218.56 2.03.56zm7.975.798v-9.898h3.668c.542 0 1.027.056 1.456.168.43.103.798.275 1.106.518.308.243.542.56.7.952.168.383.252.854.252 1.414 0 .532-.102.994-.308 1.386a2.54 2.54 0 01-.812.938 3.59 3.59 0 01-1.176.546L183.094 36h-1.12l-2.03-3.808h-2.856V36h-1.008zm1.008-4.718h2.268c.383 0 .742-.028 1.078-.084.346-.065.649-.173.91-.322a1.64 1.64 0 00.63-.658c.159-.29.243-.658.252-1.106 0-.532-.107-.947-.322-1.246-.205-.308-.504-.527-.896-.658-.392-.13-.854-.196-1.386-.196h-2.534v4.27z" fill="#1F2022"/><path d="M31.298 13.095h3.274c.559 0 1.148-.057 1.741-.198a3.678 3.678 0 001.592-.735c.473-.368.856-.88 1.178-1.557.297-.652.473-1.531.473-2.576 0-1.045-.146-1.928-.473-2.606a3.936 3.936 0 00-1.178-1.556 3.697 3.697 0 00-1.592-.735c-.59-.112-1.148-.199-1.712-.199h-3.273v10.14l-.03.03v-.008zm3.274 2.606h-6.31V.288h6.31c2.3 0 4.159.653 5.634 1.928a6.33 6.33 0 011.768 2.494c.413.962.59 2.068.59 3.258 0 1.189-.207 2.324-.59 3.286a7 7 0 01-1.768 2.494 7.174 7.174 0 01-2.508 1.416 10.05 10.05 0 01-3.127.483v.057-.003zM7.233.292H4.167v15.383h3.066V.293zm6.607 6.231v9.152h-3.067V.293l10.852 9.29V.292h3.067v15.383L13.84 6.524zM70.73 8.48a3.01 3.01 0 001.18-.228c.322-.14.619-.338.825-.594a3.07 3.07 0 00.473-.85c.09-.31.147-.653.147-1.02 0-.368-.06-.71-.207-1.05a2.63 2.63 0 00-.56-.907 3.031 3.031 0 00-.915-.653c-.353-.169-.796-.255-1.269-.255h-3.746v5.553h4.069l.004.003zm0-8.16c.796 0 1.536.141 2.212.426a5.56 5.56 0 011.798 1.16 5.562 5.562 0 011.208 1.73 5.26 5.26 0 01.443 2.126c0 .739-.116 1.445-.383 2.097A4.934 4.934 0 0174.86 9.56c-.503.483-1.149.85-1.948 1.132-.766.284-1.682.396-2.714.396h-3.57v4.591H63.56V.267h7.136l.03.057.004-.003zm110.179 2.577h-4.572v12.778h-3.067V2.897h-4.602V.292h12.241v2.605zM60.554.32H46.133v15.41h14.421v-2.663H49.2V2.927h11.354V.32z" fill="#2C2D2E"/><path d="M52.653 10.007l4.185-1.982-4.099-2.04-.086 4.022z" fill="#960028"/><path d="M195.597 9.441c-.207-.482-.503-.85-.826-1.189a5.676 5.676 0 00-1.179-.793 6.357 6.357 0 00-1.328-.482c-.443-.112-.886-.227-1.299-.285-.413-.058-.766-.14-1.093-.198-.412-.087-.825-.198-1.268-.285a7.71 7.71 0 01-1.209-.339c-.353-.14-.679-.31-.886-.511a.953.953 0 01-.353-.764c0-.31.09-.566.297-.764.206-.198.443-.397.736-.512a3.72 3.72 0 01.942-.285c.323-.057.649-.086.886-.086h6.103V.314h-5.987c-.679 0-1.355.057-2.095.198-.709.14-1.385.367-1.974.71a4.07 4.07 0 00-1.445 1.358c-.383.566-.559 1.305-.559 2.152 0 .846.116 1.106.322 1.556.207.454.503.822.856 1.132.353.31.736.594 1.179.793.443.198.886.367 1.329.511.443.144.886.227 1.328.31.413.087.796.14 1.123.198.473.087.942.17 1.385.256a5.57 5.57 0 011.149.339c.322.14.589.31.795.512.207.198.297.454.297.764s-.06.454-.207.71a1.665 1.665 0 01-.589.623c-.266.17-.589.339-.972.454-.383.112-.826.14-1.329.14h-6.073v2.635h6.103c.916 0 1.742-.087 2.478-.285.735-.198 1.385-.483 1.918-.85a3.91 3.91 0 001.238-1.417c.297-.565.443-1.246.443-2.01 0-.764-.116-1.218-.322-1.701l.09.029-.004.01zM147.261.292h-14.422v15.409h14.422v-2.663h-11.355V2.898h11.355V.291zM94.263.32H79.84v15.41h14.422v-2.663H82.907V2.927h11.355V.32zm6.576 6.203v9.152h-3.067V.293l10.852 9.29V.292h3.067v15.383l-10.852-9.152zm17.548 6.572h3.274c.559 0 1.148-.057 1.741-.198a3.675 3.675 0 001.592-.735c.473-.368.856-.88 1.179-1.557.296-.652.473-1.531.473-2.576 0-1.045-.147-1.928-.473-2.606a3.944 3.944 0 00-1.179-1.556 3.696 3.696 0 00-1.592-.735c-.589-.112-1.148-.199-1.711-.199h-3.274v10.14l-.03.03v-.008zm3.244 2.635h-6.31V.317h6.31c2.301 0 4.159.653 5.634 1.928a6.33 6.33 0 011.768 2.494c.413.962.589 2.068.589 3.257 0 1.19-.206 2.325-.589 3.287a7.008 7.008 0 01-1.768 2.494 7.18 7.18 0 01-2.508 1.416c-.942.31-2.004.482-3.126.482v.058-.003zm33.178-9.179v9.15h-3.066V.32l10.851 9.29V.32h3.067V15.7l-10.852-9.15z" fill="#2C2D2E"/><path d="M86.684 10.007l4.189-1.982-4.13-2.04-.06 4.022zm52.848 0l4.189-1.982-4.099-2.04-.09 4.022z" fill="#960028"/></svg>