<svg width="110" height="40" fill="none" xmlns="http://www.w3.org/2000/svg"><g clip-path="url(#clip0_6025_18797)" fill="#646464"><path d="M40.24.394L42.398 3v11.842h2.972V.394h-5.131zM0 .394L2.153 3v11.842H5.13V.394H0zM19.33 9.71L11.51.394h-3.9L9.764 3v11.842h2.972V6.565l6.896 8.277h2.708V.394h-3.01V9.71zm87.661 0L99.169.394h-3.897L97.425 3v11.842h2.977V6.565l6.89 8.277H110V.394h-3.009V9.71zM74.82 6.253h-6.81l.006-5.859h-3.014v14.448h3.009V8.988h6.81v5.854h3.009V.394h-3.01v5.859zm-16.477 5.363a4.688 4.688 0 01-2.154.5 4.89 4.89 0 01-1.814-.338 4.976 4.976 0 01-1.529-.937 4.228 4.228 0 01-1.415-3.27 4.203 4.203 0 011.415-3.262 4.991 4.991 0 013.343-1.282 4.693 4.693 0 012.154.506A4.91 4.91 0 0159.92 4.81l2.385-1.906-.28-.307a7.936 7.936 0 00-2.6-1.9 7.69 7.69 0 00-10.39 3.995 7.304 7.304 0 000 5.762 7.718 7.718 0 001.615 2.46 7.913 7.913 0 008.753 1.541 7.935 7.935 0 002.6-1.9l.28-.308-2.385-1.906a4.981 4.981 0 01-1.555 1.276zm-28.24.2V8.989h5.48V6.252h-5.48V3.13h7.472V.394H24.94L27.095 3v11.842h1.502v.005h9.765v-2.735h-8.258v-.296zm55.382 0V8.989h5.474V6.252h-5.474V3.13h7.467V.394h-12.63L82.475 3v11.842h1.502v.005h9.765v-2.735h-8.257v-.296zM6.233 27.011H2.8l-.635 1.686H.129l3.23-7.647h2.31l3.23 7.647H6.862l-.63-1.686zm-.506-1.325l-.732-1.927a6.296 6.296 0 01-.463-1.379H4.5c-.1.476-.256.939-.463 1.379l-.732 1.927h2.422zm7.677-4.643v4.524a1.804 1.804 0 103.607 0v-4.524h1.96v4.663c0 1.928-1.368 3.2-3.769 3.2-2.4 0-3.768-1.272-3.768-3.232v-4.652l1.97.021zm8.742 3.849c0-2.424 1.701-4.06 4.307-4.06 2.153 0 3.639 1.076 3.972 2.8l-2.002.355a1.858 1.858 0 00-2.003-1.616c-1.4 0-2.25.959-2.25 2.5 0 1.54.861 2.487 2.283 2.487a1.884 1.884 0 002.002-1.562l1.981.431c-.474 1.67-1.884 2.693-4.026 2.693-2.681-.011-4.264-1.594-4.264-4.028zm17.873-2.308h-2.627v6.112h-1.96v-6.112h-2.627v-1.54h7.214v1.54zm3.121 6.113V21.05h1.95v7.647h-1.95zm5.255-3.827c0-2.466 1.712-4.039 4.339-4.039 2.627 0 4.339 1.573 4.339 4.04 0 2.465-1.701 4.038-4.34 4.038-2.637 0-4.338-1.583-4.338-4.039zm6.643 0c0-1.562-.883-2.542-2.304-2.542-1.421 0-2.293.98-2.293 2.542 0 1.562.882 2.542 2.293 2.542 1.41 0 2.304-.98 2.304-2.542zm5.351-3.826h2.153l3.112 4.362a5.8 5.8 0 01.538.937h.032v-5.299h1.788v7.652H65.96l-3.23-4.405a6.22 6.22 0 01-.539-.916v5.342h-1.787l-.016-7.673zm17.829 6.236v1.417h-6.336V21.05h6.266v1.41H73.84v1.66h4.134v1.346H73.84v1.81l4.377.005zm9.969 0v1.417H81.84V21.05h6.272v1.411h-4.307v1.659h4.135v1.346h-4.135v1.81l4.382.005zm7.15-1.432h-1.572v2.849H91.8V21.05h4.134c2.153 0 2.94 1.077 2.94 2.38a2.182 2.182 0 01-1.616 2.154l1.83 3.102h-2.153l-1.599-2.838zm-1.572-1.292h1.765c.948 0 1.314-.485 1.314-1.11 0-.624-.355-1.077-1.314-1.077h-1.765v2.187zm7.633 2.525l1.432-1.001a2.915 2.915 0 002.627 1.39c1.002 0 1.615-.28 1.615-.884 0-.603-.333-.732-1.173-.872l-1.572-.226c-1.561-.259-2.39-.97-2.39-2.305 0-1.444 1.292-2.327 3.445-2.327 1.615 0 2.896.506 3.617 1.551l-1.27 1.077a2.743 2.743 0 00-2.471-1.25c-.926 0-1.464.292-1.464.798s.312.71 1.195.85l1.529.238c1.679.258 2.465.894 2.465 2.25 0 1.552-1.313 2.532-3.628 2.532-1.9.005-3.327-.717-3.957-1.82z"/></g><defs><clipPath id="clip0_6025_18797"><path fill="#fff" d="M0 0h110v40H0z"/></clipPath></defs></svg>