<svg width="200" height="56" fill="none" xmlns="http://www.w3.org/2000/svg"><g clip-path="url(#clip0_2893_449)" fill-rule="evenodd" clip-rule="evenodd" fill="#1F2022"><path d="M0 41.977V55.84h1.316v-6.97l.334.375 6.697 6.633h1.86l-7.553-7.31 6.79-6.554h-1.62l-5.97 5.905-.48.49v-6.395L0 41.977zm10.288 6.95a9.018 9.018 0 00.487 3.035 6.249 6.249 0 001.345 2.221 5.637 5.637 0 002.007 1.356 6.947 6.947 0 004.98 0 5.601 5.601 0 002.014-1.356 6.249 6.249 0 001.345-2.22c.335-.978.5-2.004.487-3.036 0-.728-.084-1.453-.247-2.163a7.29 7.29 0 00-.727-1.94 5.779 5.779 0 00-1.258-1.571 5.485 5.485 0 00-1.774-1.046 7.124 7.124 0 00-4.602 0 5.638 5.638 0 00-1.774 1.046 6.03 6.03 0 00-1.258 1.572 7.523 7.523 0 00-.727 1.939 9.3 9.3 0 00-.247 2.163h-.051zm1.454 0a8.164 8.164 0 01.276-2.213 5.634 5.634 0 01.727-1.688c.299-.45.673-.848 1.106-1.175a4.694 4.694 0 011.337-.72c.47-.148.961-.223 1.454-.224.494.002.984.078 1.455.223.481.168.933.412 1.337.721.433.325.804.723 1.098 1.175.333.52.579 1.09.727 1.688a9.033 9.033 0 010 4.434 5.743 5.743 0 01-.727 1.672 4.53 4.53 0 01-1.098 1.154c-.403.3-.856.53-1.337.678-.47.149-.961.224-1.455.223a4.694 4.694 0 01-1.454-.223 4.33 4.33 0 01-1.338-.678 4.68 4.68 0 01-1.105-1.154 5.743 5.743 0 01-.727-1.672 8.22 8.22 0 01-.276-2.221zm14.345-6.95V55.84h1.316V44.97l-.08-1.608h.058l.727 1.485 6.711 10.995h1.701V41.977h-1.323v10.872l.044 1.608h-.044l-.618-1.269-6.813-11.211h-1.68zm13.407 13.381a8.735 8.735 0 003.257.613 6.594 6.594 0 002.13-.31 3.935 3.935 0 001.455-.822c.357-.325.637-.723.821-1.168.175-.425.261-.882.255-1.34a3.731 3.731 0 00-.248-1.443 3.165 3.165 0 00-.727-1.067 6.46 6.46 0 00-1.09-.872c-.43-.267-.909-.541-1.454-.83l-1.142-.612a6.538 6.538 0 01-.923-.613 2.436 2.436 0 01-.625-.721 1.954 1.954 0 01-.226-.945 2.323 2.323 0 01.276-1.175 1.88 1.88 0 01.488-.57c.25-.192.537-.331.843-.41a4.644 4.644 0 011.287-.166 7.327 7.327 0 012.908.598l.182-1.226a9.711 9.711 0 00-1.563-.389 9.525 9.525 0 00-1.454-.108c-.601-.01-1.2.06-1.782.209a3.832 3.832 0 00-1.236.562 2.934 2.934 0 00-1.178 1.73c-.08.31-.12.627-.116.945-.012.497.09.99.298 1.442.189.39.45.74.77 1.031.317.29.666.545 1.04.757.371.217.728.419 1.106.599l1.163.627c.362.208.702.45 1.018.721.3.243.548.545.727.887.19.365.286.771.276 1.182a2.011 2.011 0 01-.727 1.615 3.12 3.12 0 01-.763.462 4.437 4.437 0 01-.865.26c-.283.056-.57.085-.858.086a5.631 5.631 0 01-1.004-.101 8.845 8.845 0 01-1.083-.274 7.668 7.668 0 01-1.032-.404l-.139 1.29-.065-.05zm8.79-13.41V43.1h4.195v12.74h1.316V43.1h4.195v-1.124l-9.706-.03zm14.447 0h1.716L70 55.813h-1.454l-1.541-3.822h-6.914l-1.535 3.822h-1.454l5.555-13.865h.073zm.88 1.283h-.044l-.487 1.312-2.538 6.316h6.035l-2.508-6.316-.458-1.312zm8.724-1.283v13.865h1.316V44.969l-.08-1.608h.058l.727 1.485 6.711 10.995h1.702V41.977h-1.324v10.872l.044 1.608h-.044l-.618-1.269-6.841-11.211-1.65-.03zm12.746 0V43.1h4.173v12.74h1.316V43.1h4.195v-1.124l-9.684-.03zm12.004 0v13.865h1.323V41.977l-1.323-.03zm5.314 0v13.865h1.316V44.969l-.08-1.608h.066l.727 1.485 6.718 10.995h1.694V41.977h-1.316v10.872l.036 1.608h-.036l-.618-1.269-6.813-11.211-1.694-.03zm28.712 12.257a8.49 8.49 0 01-1.12.353c-.399.1-.805.175-1.214.224a10.7 10.7 0 01-1.265.079 5.942 5.942 0 01-2.13-.397 5.169 5.169 0 01-1.766-1.168 5.113 5.113 0 01-1.143-1.773 6.53 6.53 0 01-.436-2.394 7.533 7.533 0 01.386-2.437 5.916 5.916 0 011.105-1.968 4.973 4.973 0 011.766-1.313 5.708 5.708 0 012.363-.483h.669c.379.03.755.083 1.127.159a8.77 8.77 0 011.454.418l.117-1.19a8.367 8.367 0 00-.996-.31 8.25 8.25 0 00-1.055-.165 9.965 9.965 0 00-1.163-.058 8.332 8.332 0 00-2.705.404 6.135 6.135 0 00-2.021 1.11 5.92 5.92 0 00-1.381 1.63 7.384 7.384 0 00-.793 1.99 9.436 9.436 0 00-.254 2.162 8.154 8.154 0 00.262 2.063c.179.659.451 1.29.807 1.874a5.991 5.991 0 001.381 1.529c.59.456 1.257.805 1.97 1.03.84.26 1.716.387 2.596.376.462 0 .923-.026 1.381-.08.422-.057.815-.122 1.171-.202.356-.079.669-.166.945-.252v-1.247l-.058.036zm2.596-12.257v13.865h1.316v-6.62h7.27v6.62h1.323V41.977h-1.359v6.12h-7.271v-6.12l-1.279-.03zm17.754 0l-5.547 13.865h1.418l1.534-3.822h6.914l1.542 3.822h1.417l-5.554-13.865h-1.724zm.88 1.283l.465 1.312 2.538 6.316h-6.035l2.472-6.316.458-1.312h.102zm5.09-1.283h1.534l3.897 6.143.48.807.618-.952 3.897-5.998h1.614l-5.49 8.082v5.768h-1.323V50.03l-5.227-8.082zm14.243 0v13.865h1.316v-6.944l.341.375 6.689 6.633h1.862l-7.562-7.346 6.791-6.554h-1.701l-5.97 5.905-.479.49v-6.395l-1.287-.03zm12.621 0v13.865h1.324V41.977l-1.324-.03zm5.315 0v13.865h1.316V44.969l-.08-1.608h.066l.727 1.485 6.674 10.995h1.694V41.977h-1.33v10.872l.036 1.608h-.036l-.618-1.269-6.813-11.211-1.636-.03zM92.199 26.352l-1.564 1.55h18.759l-1.564-1.55-1.563-1.55h-6.252L75.004 0l25.011 18.602L125.025 0l-25.01 24.802h-6.253l-1.563 1.55z"/></g><defs><clipPath id="clip0_2893_449"><path fill="#fff" d="M0 0h200v56H0z"/></clipPath></defs></svg>